/* XPM */
static char *cavee[] = {
/* columns rows colors chars-per-pixel */
"64 64 122 2 ",
"   c #24667C",
".  c #27687E",
"X  c #28697F",
"o  c #1F6D88",
"O  c #1E7593",
"+  c #1E7896",
"@  c #2D6D82",
"#  c #306F83",
"$  c #26738C",
"%  c #347285",
"&  c #387587",
"*  c #377588",
"=  c #397688",
"-  c #37798C",
";  c #3D7A8B",
":  c #1A7FA2",
">  c #427D8E",
",  c #457F90",
"<  c #2C839F",
"1  c #34829B",
"2  c #3E869A",
"3  c #1E83A4",
"4  c #118FB9",
"5  c #1996BE",
"6  c #2185A6",
"7  c #2E85A0",
"8  c #2387A8",
"9  c #2689A9",
"0  c #2B8DAC",
"q  c #3186A1",
"w  c #348AA5",
"e  c #2F90AE",
"r  c #2795B8",
"t  c #2996B9",
"y  c #3493B1",
"u  c #3897B4",
"i  c #3C9AB6",
"p  c #45808F",
"a  c #468190",
"s  c #4B8593",
"d  c #4F8896",
"f  c #448A9D",
"g  c #508796",
"h  c #518997",
"j  c #558C99",
"k  c #598E9B",
"l  c #5C919D",
"z  c #60949F",
"x  c #4496AD",
"c  c #5F93A0",
"v  c #5697A8",
"b  c #5D9CAC",
"n  c #429EBA",
"m  c #519FB4",
"M  c #6296A1",
"N  c #6997A6",
"B  c #6699A3",
"V  c #6A9CA6",
"C  c #6D9DA8",
"Z  c #729EAC",
"A  c #779FB0",
"S  c #44A0BB",
"D  c #49A4BE",
"F  c #52A0B4",
"G  c #58A3BF",
"H  c #6FA0A9",
"J  c #74A3AC",
"K  c #78A7AE",
"L  c #7AA8AF",
"P  c #69A1B5",
"I  c #6CA4B8",
"U  c #61A9BE",
"Y  c #73A2B1",
"T  c #7AA3B1",
"R  c #7EABB2",
"E  c #72ACBA",
"W  c #7CB5BF",
"Q  c #0F99C7",
"!  c #109AC7",
"~  c #1F9BC1",
"^  c #149DCA",
"/  c #089FD1",
"(  c #2A9EC3",
")  c #17A0CC",
"_  c #1BA3CE",
"`  c #0BA1D3",
"'  c #08A4D9",
"]  c #07A9DF",
"[  c #11A5D6",
"{  c #1FA5D0",
"}  c #12A7D8",
"|  c #16A9D8",
" . c #1CAEDE",
".. c #1FB0DE",
"X. c #24A1C8",
"o. c #2FA6CC",
"O. c #3EA7C6",
"+. c #34A8CC",
"@. c #21A7D2",
"#. c #23A8D3",
"$. c #29ABD7",
"%. c #24ACDA",
"&. c #2BAED8",
"*. c #37AAD1",
"=. c #3AAED2",
"-. c #2DB0D9",
";. c #05AEE7",
":. c #0CAEE4",
">. c #00AFEA",
",. c #4EA4C2",
"<. c #42A7CA",
"1. c #43ABCD",
"2. c #49AFCD",
"3. c #51A7C4",
"4. c #53AAC5",
"5. c #57AFC9",
"6. c #5BB2C9",
"7. c #64ACC0",
"8. c #81ADB4",
"9. c #85B1B6",
"0. c #88B2B7",
"q. c #8BB5B9",
/* pixels */
">.>.>.>.>.>.>.>.>.>.>.>.>.>.>.>.>.>.>.>.>.>.>.>.>.>.>.>.>.>.>.>.>.>.>.>.>.>.>.>.>.>.>.>.>.>.>.>.>.>.>.>.>.>.>.>.>.>.>.>.>.>.>.>.",
">.>.>.>.>.>.>.>.>.>.>.>.>.>.>.>.>.>.>.>.>.>.>.>.>.>.>.>.>.>.>.>.>.>.>.>.>.>.>.>.>.>.>.>.>.>.>.>.>.>.>.>.>.>.>.>.>.>.>.>.>.>.>.>.",
">.>.>.>.>.>.>.>.>.>.>.>.>.>.>.>.>.>.>.>.>.>.>.>.>.>.>.>.>.>.>.>.>.>.>.>.>.>.>.>.>.>.>.>.>.>.>.>.>.>.>.>.>.>.>.>.>.>.>.>.>.>.>.>.",
">.>.>.>.>.>.>.>.>.>.>.>.>.>.>.>.>.>.>.>.>.>.>.>.>.>.>.>.>.>.>.>.>.>.>.>.>.>.>.>.>.>.>.>.>.>.>.>.>.>.>.>.>.>.>.>.>.>.>.>.>.>.>.>.",
">.>.>.>.>.>.>.>.>.>.>.>.>.>.>.>.>.>.>.>.>.>.>.>.>.>.>.>.>.>.>.>.>.>.>.>.>.>.>.>.>.>.>.>.>.>.>.>.>.>.>.>.>.>.>.>.>.>.>.>.>.>.>.>.",
">.>.>.>.>.>.>.>.>.>.>.>.>.>.>.>.>.>.>.>.>.>.>.>.>.>.>.>.>.>.>.>.>.>.>.>.>.>.>.>.>.>.>.>.>.>.>.>.>.>.>.>.>.>.>.>.>.>.>.>.>.>.>.>.",
">.>.>.>.>.>.>.>.>.>.>.>.>.>.>.>.>.>.>.>.>.>.>.>.| >.>.>.>.>.>.>.>.>.>.>.>.>.>.>.>.>.>.>.>.>.>.>.>.>.>.>.>.>.>.>.>.>.>.>.>.>.>.>.",
">.>.>.>.>.>.>.>.>.>.>.>.>.>.>.>.>.>.>.>.>.>.>.>.u >.>.>.>.>.>.>.>.>.>.>.>.>.>.>.>.>.>.>.>.>.>.>.>.>.>.>.>.>.>.>.>.>.>.>.>.>.>.>.",
">.>.>.>.>.>.>.>.>.>.>.>.>.>.>.>.>.>.>.>.>.>.>.>.i >.>.>.>.>.>.>.>.>.>.>.>.>.>.>.>.>.>.>.>.>.>.>.>.>.>.>.>.>.>.>.>.>.>.>.>.>.>.>.",
">.>.>.>.>.>.>.>.>.>.>.>.>.>.>.>.>.>.>.>.>.>.>.>.v } >.>.>.>.>.>.>.>.>.>.>.>.>.>.>.>.>.>.>.>.>.>.>.>.>.>.>.>.>.>.>.>.>.>.>.>.>.>.",
">.>.>.>.>.>.>.>.>.>.>.>.>.>.>.>.>.>.>.>.>.>.>.y s _ >.>.>.>.>.>.>.>.>.>.>.>.>.>.>.>.>.>.>.>.>.>.>.>.>.>.>.>.>.>.>.>.>.>.>.>.>.>.",
">.>.>.>.>.>.>.>.>.>.>.>.>.>.>.>.>.>.>.>.>.>.>.e > ^ >.>.>.>.>.>.>.>.>.>.>.>.>.>.>.>.>.>.>.>.>.>.>.>.>.>.>.>.>.>.>.>.>.>.>.>.>.>.",
">.>.>.>.>.>.>.>.>.>.>.>.>.>.>.>.>.>.>.>.>.>.>.e > ^ >.>.>.>.>.>.>.>.>.>.>.>.>.>.>.>.>.>.>.>.>.>.>.>.>.>.>.>.>.>.>.>.>.>.>.>.>.>.",
">.>.>.>.>.>.>.>.>.>.>.>.>.>.>.>.>.>.>.>.>.>.>.0 & ^ >.>.>.>.>.>.>.>.>.>.>.>.>.>.>.>.>.>.>.>.>.>.>.>.>.>.>.>.>.>.>.>.>.>.>.>.>.>.",
">.>.>.>.>.>.>.>.>.>.>.>.>.>.>.>.>.>.>.>.>.>.>.e a ) >.>.>.` >.>.>.>.>.>.>.>.>.>.>.>.>.>.>.>.>.>.>.>.>.>.>.>.>.>.>.>.>.>.>.>.>.>.",
">.>.>.>.>.>.>.>.>.>.>.>.>.>.>.>.>.>.>.>.>.>.>.i j _ >.>.>.3 >.>.>.>.>.>.>.>.>.>.>.>.>.>.>.>.>.>.>.>.>.>.>.>.>.>.>.>.>.>.>.>.>.>.",
">.>.>.>.>.>.>.>.>.>.>.>.>.>.>.>.>.>.>.>.>.>.>.0 > < >.>.>.3 3 >.>.>.>.>.>.>.>.>.>.>.>.>.>.>.>.>.>.>.>.>.>.>.>.>.>.>.>.>.>.>.>.>.",
">.>.>.>.>.>.>.>.>.>.>.>.>.>.>.>.>.>.>.>.>.>.>.9 % % >.>.>.3 3 >.>.>.>.>.>.>.>.>.>.>.>.>.>.>.>.>.>.>.>.>.>.>.>.>.>.>.>.>.>.>.>.>.",
">.>.>.>.>.>.>.>.>.>.>.>.>.>.>.>.>.>.>.>.>.>.>.y p > >.>.>.8 3 >.>.>.>.>.>.>.>.>.>.>.>.>.>.>.>.>.>.>.>.>.>.>.>.>.>.>.>.>.>.>.>.>.",
">.>.>.>.>.>.>.>.>.>.>.>.>.>.>.>.>.>.>.>.>.>.| B M l >.>.>.: o / >.>.>.>.>.>.>.>.>.>.>.>.>.>.>.>.>.>.>.>.>.>.>.>.>.>.>.>.>.>.>.>.",
">.>.>.>.>.>.>.>.>.>.>.>.>.>.>.>.>.>.>.>.>.>.{ k h d y >.>.D V %.>.>.>.>.>.>.>.>.>.>.>.>.>.>.>.>.>.>.>.>.>.>.>.>.>.>.>.>.>.>.>.>.",
">.>.>.>.>.>.>.>.>.>.>.>.>.>.>.>.>.>.>.>.>.>._ s s p 0 >.>.S M X.>.>.>.>.>.>.>.>.>.>.>.>.>.>.>.>.>.>.>.>.>.>.>.>.>.>.>.>.>.>.>.>.",
">.>.>.>.>.>.>.>.>.>.>.>.>.>.>.>.>.>.>.>.>.>.) , = ; * ^ >.u s t >.>.>.>.>.>.>.>.>.>.>.>.>.>.>.>.>.>.>.>.>.>.>.>.>.>.>.>.>.>.>.>.",
">.>.>.>.>.>.>.>.>.>.>.>.>.>.>.>.>.>.>.>.>.>.^ ; * % % ^ >.e ; > >.>.>.>.>.>.>.>.>.>.>.>.>.>.>.>.>.>.>.>.>.>.>.>.>.>.>.>.>.>.>.>.",
">.>.>.>.>.>.>.>.>.>.>.>.>.>.>.>.>.>.>.>.>.>.^ & % @ @ @ >.9 % % 9 >.>.>.>.>.>.>.>.>.>.>.>.>.>.>.>.>.>.>.>.>.>.>.>.>.>.>.>.>.>.>.",
">.>.>.>.>.>.>.>.>.>.>.>.>.>.>.>.>.>.>.>.>.>.! % @ @ @ X >.6 # X $ / ;.>.>.>.>./ >.>.>.>.>.>.>.>.>.>.>.>.>.>.>.>.>.>.>.>.>.>.>.>.",
">.>.>.>.>.>.>.>.>.>.>.>.>.>.>.>.>.>.>.>.>.>.w * @ @ @ % 4 + X X @   ;.>.>.>.>.: : >.>.>.>.>.>.>.>.>.>.>.>.>.>.>.>.>.>.>.>.>.>.>.",
">.>.>.>.>.>.>.>.>.>.>.>.>.>.>.>.>.>.>.>.>.>.a = % % @ @ X       o   ~ ;.>.>.>.: : >.>.>.>.>.>.>.>.>.>.>.>.>.>.>.>.>.>.>.>.>.>.>.",
">.>.>.>.>.>.>.>.>.>.>.>.>.D +.>.>.>.>.>.>.>.; = % @ @ X X X . . @ # & ^ >.>.>.0 0 >.>.>.>.>.>.>.>.>.>.>.>.>.>.>.>.>.>.>.>.>.>.>.",
">.>.>.>.>.>.>.>.>.>.>.>.>.n i >.>.>.>.>.>.>.; * % % # @ X % > > # % & : >.>.>.e 9 >.>.>.>.>.>.>.>.>.>.>.>.>.>.>.>.>.>.>.>.>.>.>.",
">.>.>.>.>.>.>.>.>.>.>.>.>.S n >.>.>.>.>.>.0 ; ; * % % % % % > B # # % % >.>.>.9 - [ >.>.>.>.>.>.>.>.>.>.>.>.>.>.>.>.>.>.>.>.>.>.",
";.>.>.>.>.>.>.>.>.>.>.>.>.D 4.>.>.>.>.>.[ 2 > ; = * % % % @ > C # # % * >.>.>.0 ; [ >.>.>.>.>.>.>.>.>.>.>.>.>.>.>.>.>.>.>.>.>.>.",
">.>.>.>.>.>.>.>.>.>.>.>.>.n n >.>.>.>.} d p p ; ; & = % % % ; s % # % % ` >.>.u s ) >.>.>.>.>.>.>.>.>...6.>.>.>.>.>.>.>.>.>.>.>.",
">.>.>.>.>.>.>.>.>.>.>.>.>.u f ` >.>.>.u a p > ; = & & % * % p = % % % * : ;.>.n l _ >.>.>.>.>.>.>.>.>.5.5.>.>.>.>.>.>.>.>.>.>.>.",
">.>.>.>.>.>.>.>.>.>.>.>.^ ; ; ^ >.>._ h d a > > > ; ; ; & = s ; & & & & : :.>.y s r >.>.>.>.>.>.>.>.>.u l @.>.>.>.>.>.>.>.>.>.>.",
">.>.>.>.>.>.>.>.>.>.>.>.! % @ Q >.>.X.j h d s p p p > > ; > s ; & % * & > w ' , p p >.>.>.>.>.>.>.>.} f d _ >.>.>.>.>.>.>.>.>.>.",
">.>.>.>.>.>.>.>.>.>.>.>.! @ . O >.>.l l j j g s p a p p = = * ; > > > > > , , , s g ;.>.>.>.>.>.>.>._ d d _ >.>.>.>.>.>.>.>.>.>.",
">.>.>.>.>.>.>.>.>.>.>.>.q @ . @ >.>.l k j j j d d p p ; ; X X = > > > & , , , , g j t >.>.>.>.>.>.>.^ = ; ^ >.>.>.>.>.>.>.>.>.>.",
">.>.>.>.>.>.>.>.>.>.>.>.@       ` S z l l j h h s p p d ; X   & > > > % , , , , h j l @.>.>.>.>.>.>.t % % ^ >.>.>.>.>.>.>.>.>.>.",
">.>.>.>.>.>.>.>.>.>.>.>.; X     1 b H z z l l l g d g d & .   * > > > & , , , k k l l x X.>.>.>.>.>.l % % ) >.>.>.>.>.>.>.>.>.>.",
">.>.>.>.>.>.>.>.>.>.>.} * @ @ @ p H z B z z l l h l j j > .   ; , , j , s s k k z z z j M <.>.>.>.>.      X >.>.>.>.>.>.>.>.>.>.",
">.>.>.>.>.>.>.>.>.>.>.u ; * % % ; H H l l l l l l l j d ; X . % k k k , a l l z z z j j V J D | >.o.% . X > >.>.>.>.>.>.>.>.>.>.",
">.>.>.>.>.>.>.>.>.>.) s > ; % * ; l K J H H V z M z l k s % X % j k k > > j l j h h z V J J H z m < ; @ & l >.>.>.>.>.>.>.>.>.>.",
">.>.>.>.>.>.>.>.>.>.x g s > > > p p H K J H z l l k k l d = = * > , , , > d g h k B H J B V z z K s & & ; s ( >.>.>.>.>.>.>.>.>.",
">.>.>.>.>.>.>.;.{ F c j s p p p s j l z l l z z H V B V l p ; p > > N h > z V C H C B l M V 8.J V s p > p s x ] >.>.>.>.>.>.>.>.",
">.>.>.>.>.>. .D J J B j h d d k k z z j J J L L K J H H B s s p , , k k h z J J z z z z L q.8.H B k s s j l l #.>.>.>.>.>.>.>.>.",
">.>.>.>.:.$.N C 0.L J H B z z B l z H K 9.9.H H B B B H V d s s k g k l j z H z z z z V q.q.q.0.H V B z B B J R %.>.>.>.>.>.>.>.",
">.>.>.;.U L C k J 8.9.K K K H L L R 9.9.0.9.9.9.9.L L K H z l l k k M N V H B J J L 8.9.q.q.q.q.L H B B L K 9.q.W 5.%.>.>.>.>.>.",
">.>.>.=.8.8.Z z j j H J R 8.8.8.8.8.8.8.K V V z J 0.8.K C V M M V J M V V V C 9.0.q.q.q.R Y 8.8.9.q.q.q.q.q.q.9.q.V T R  .;.>.>.",
">.>.>.>.2.8.8.A N k c c c B 8.8.8.8.8.8.8.8.L B 9.q.q.R 9.9.R 8.K 9.0.9.9.q.q.q.q.q.R J V N N N V J K J J J 8.0.C M R 8.7.%.>.>.",
">.>.>.>.>.>.5.5.U R Z M M c l h k K T Z J 9.9.J V B R R R R R 8.R R R R R R R R K B V H R q.q.q.q.q.q.q.0.R T N T 8.8.9.6...>.>.",
">.>.>.>.>.>.>.>.:.*.$.7.T A A N N N M s s l l l h d l L R 8.R R R R 9.R R R 8.R R R 8.0.q.q.q.0.q.L B V C J T 8.7.&.&.-.>.>.>.>.",
">.>.>.>.>.>.>.>.>.>.>.>.>.>.>.>.>. .,.P c c h g d s s s s a a s a a B K J J R L L K K H j j j j l l B J E 3.;.>.>.>.>.>.>.>.>.>.",
">.>.>.>.>.>.>.>.>.>.>.>.>.>.>.>.>.>.>. .<.A N V V V h h h h h d d d d d g g h h j j j j k c M Z Z J R 1. .>.>.>.>.>.>.>.>.>.>.>.",
">.>.>.>.>.>.>.>.>.>.>.>.>.>.>.>.>.>.>.>.>.>.>.*.3.3.3.,.3.,.G Y A T T T A Z T T I 3.4.4.3.3.3.5.5. .>.>.>.>.>.>.>.>.>.>.>.>.>.>.",
">.>.>.>.>.>.>.>.>.>.>.>.>.>.>.>.>.>.>.>.>.>.>.>.>.>.>.>.>.>.:.%.$.$.$.$.$.$.$.$. .>.>.>.>.>.>.>.>.>.>.>.>.>.>.>.>.>.>.>.>.>.>.>.",
">.>.>.>.>.>.>.>.>.>.>.>.>.>.>.>.>.>.>.>.>.>.>.>.>.>.>.>.>.>.>.>.>.>.>.>.>.>.>.>.>.>.>.>.>.>.>.>.>.>.>.>.>.>.>.>.>.>.>.>.>.>.>.>.",
">.>.>.>.>.>.>.>.>.>.>.>.>.>.>.>.>.>.>.>.>.>.>.>.>.>.>.>.>.>.>.>.>.>.>.>.>.>.>.>.>.>.>.>.>.>.>.>.>.>.>.>.>.>.>.>.>.>.>.>.>.>.>.>.",
">.>.>.>.>.>.>.>.>.>.>.>.>.>.>.>.>.>.>.>.>.>.>.>.>.>.>.>.>.>.>.>.>.>.>.>.>.>.>.>.>.>.>.>.>.>.>.>.>.>.>.>.>.>.>.>.>.>.>.>.>.>.>.>.",
">.>.>.>.>.>.>.>.>.>.>.>.>.>.>.>.>.>.>.>.>.>.>.>.>.>.>.>.>.>.>.>.>.>.>.>.>.>.>.>.>.>.>.>.>.>.>.>.>.>.>.>.>.>.>.>.>.>.>.>.>.>.>.>.",
">.>.>.>.>.>.>.>.>.>.>.>.>.>.>.>.>.>.>.>.>.>.>.>.>.>.>.>.>.>.>.>.>.>.>.>.>.>.>.>.>.>.>.>.>.>.>.>.>.>.>.>.>.>.>.>.>.>.>.>.>.>.>.>.",
">.>.>.>.>.>.>.>.>.>.>.>.>.>.>.>.>.>.>.>.>.>.>.>.>.>.>.>.>.>.>.>.>.>.>.>.>.>.>.>.>.>.>.>.>.>.>.>.>.>.>.>.>.>.>.>.>.>.>.>.>.>.>.>.",
">.>.>.>.>.>.>.>.>.>.>.>.>.>.>.>.>.>.>.>.>.>.>.>.>.>.>.>.>.>.>.>.>.>.>.>.>.>.>.>.>.>.>.>.>.>.>.>.>.>.>.>.>.>.>.>.>.>.>.>.>.>.>.>.",
">.>.>.>.>.>.>.>.>.>.>.>.>.>.>.>.>.>.>.>.>.>.>.>.>.>.>.>.>.>.>.>.>.>.>.>.>.>.>.>.>.>.>.>.>.>.>.>.>.>.>.>.>.>.>.>.>.>.>.>.>.>.>.>."
};
