/* XPM */
static char *ccavee[] = {
/* columns rows colors chars-per-pixel */
"64 64 192 2 ",
"   c #2C9CCE",
".  c #309DCF",
"X  c #329ED0",
"o  c #35A1CF",
"O  c #39A6CF",
"+  c #3FACCE",
"@  c #33A0D0",
"#  c #3CA4D1",
"$  c #3EA8D0",
"%  c #3AB9DD",
"&  c #05A6E2",
"*  c #0BA6E2",
"=  c #02AAE6",
"-  c #0CAAE5",
";  c #00AFEA",
":  c #0AAFE9",
">  c #13ABE4",
",  c #1AACE4",
"<  c #04B0EA",
"1  c #0BB2EA",
"2  c #16B3E7",
"3  c #1CB0E7",
"4  c #14B4EB",
"5  c #1BB6EB",
"6  c #1FB8EC",
"7  c #22AEE4",
"8  c #24B2E6",
"9  c #2BB3E4",
"0  c #23B6E9",
"q  c #2DB6E9",
"w  c #24BAEC",
"e  c #2BBCED",
"r  c #33B4E6",
"t  c #3BB7E7",
"y  c #3EB8E7",
"u  c #33B6E8",
"i  c #3CB7E8",
"p  c #32BEED",
"a  c #3BBBEA",
"s  c #42AFCE",
"d  c #44B1CE",
"f  c #4EB9CF",
"g  c #50BBCF",
"h  c #41A7D2",
"j  c #45ABD3",
"k  c #4EAED5",
"l  c #53ADD8",
"z  c #4CB3D2",
"x  c #4EB9D4",
"c  c #4EBBD9",
"v  c #46B5D6",
"b  c #54B4D5",
"n  c #59B5D6",
"m  c #54BAD3",
"M  c #5CBCD6",
"N  c #54B5DA",
"B  c #5EB6D8",
"V  c #53BBDA",
"C  c #5BBCDC",
"Z  c #61BDD7",
"A  c #63BDD9",
"S  c #6BBEDC",
"D  c #70BFDE",
"F  c #44BCE6",
"G  c #4DBAE7",
"H  c #44BCE9",
"J  c #4CBDE9",
"K  c #52BBE7",
"L  c #5EBBE4",
"P  c #53BEE9",
"I  c #62BDE4",
"U  c #6DBEE3",
"Y  c #37C0EE",
"T  c #3CC2EF",
"R  c #3FC3F0",
"E  c #4FC0DD",
"W  c #54C1D6",
"Q  c #5DC1D6",
"!  c #56C1D9",
"~  c #5DC1DB",
"^  c #64C2D6",
"/  c #6AC6D7",
"(  c #6DC9D6",
")  c #65C2DA",
"_  c #6BC4DB",
"`  c #6DC8DA",
"'  c #74C5DD",
"]  c #79C6DE",
"[  c #73C9DC",
"{  c #7BCBDD",
"}  c #43C2EE",
"|  c #4CC2EC",
" . c #5FC7E7",
".. c #54C3EC",
"X. c #5BC3EB",
"o. c #56C8EF",
"O. c #5CC9EF",
"+. c #43C4F0",
"@. c #4CC7F0",
"#. c #4FC8F1",
"$. c #50C7F0",
"%. c #54C9F1",
"&. c #5BCBF1",
"*. c #65C2E0",
"=. c #6DC4E4",
"-. c #63C6EC",
";. c #6BC4EA",
":. c #65C9ED",
">. c #6CCAEE",
",. c #74C6E2",
"<. c #7BC5E1",
"1. c #75CAE2",
"2. c #7CCBE2",
"3. c #72C3E8",
"4. c #73CCEE",
"5. c #7BCDED",
"6. c #7ED0EF",
"7. c #63CDF1",
"8. c #6ACEF1",
"9. c #73CEF0",
"0. c #79CFF0",
"q. c #6DD0F2",
"w. c #73D2F2",
"e. c #7DD3F2",
"r. c #82CDDF",
"t. c #84D0DF",
"y. c #80C7E1",
"u. c #83CDE3",
"i. c #8BCEE4",
"p. c #83CDEA",
"a. c #8CCFEB",
"s. c #92CEE7",
"d. c #93CFEA",
"f. c #85D1E3",
"g. c #8CD2E4",
"h. c #84D1ED",
"j. c #8BD2EC",
"k. c #93D4E5",
"l. c #98D5E7",
"z. c #96D8E6",
"x. c #9CD9E7",
"c. c #93D4EB",
"v. c #9BD5EB",
"b. c #96D9EA",
"n. c #9CD9EA",
"m. c #83D4F2",
"M. c #8BD6F2",
"N. c #86D8F4",
"B. c #8BD9F4",
"V. c #92D7F1",
"C. c #94DAF4",
"Z. c #9BDBF3",
"A. c #A2DCE7",
"S. c #A1D7ED",
"D. c #A3DBEC",
"F. c #ABDCEE",
"G. c #A3DDF3",
"H. c #ABDEF2",
"J. c #B1DFF1",
"K. c #9EE0F6",
"L. c #ACE0EC",
"P. c #B3E2EE",
"I. c #A4E1F6",
"U. c #ABE2F5",
"Y. c #A5E2F8",
"T. c #ACE4F8",
"R. c #B3E3F5",
"E. c #BBE5F4",
"W. c #BFE8F7",
"Q. c #B3E7F8",
"!. c #BBE7F8",
"~. c #B7E8F9",
"^. c #BBE9F9",
"/. c #C2E7F5",
"(. c #C4E9F5",
"). c #CBEBF6",
"_. c #C3EAF9",
"`. c #CBEDF9",
"'. c #D3EEF6",
"]. c #D8EFF6",
"[. c #D3EEF9",
"{. c #D8EFF8",
"}. c #D7F0F6",
"|. c #DCF1F6",
" X c #D5F0FA",
".X c #DBF2FA",
"XX c #E0F2F7",
"oX c #E3F5FB",
"OX c #EAF7FC",
"+X c #EDF8FD",
"@X c #F3FAFD",
"#X c #F9FDFE",
/* pixels */
"; ; ; ; < ; ; ; ; ; < < < < < < < 4 4 4 6 4 1 1 < < < < < ; < < < 4 4 6 4 1 1 1 < < < ; ; ; ; ; ; ; ; ; ; ; ; ; ; ; < ; ; ; ; ; ",
"; ; ; ; ; ; ; ; ; ; < < < < < 1 5 Y Y +.+.R Y 6 1 1 < < < < < < 4 e R +.+.Y Y 5 1 < < ; ; < ; ; ; ; ; ; ; ; ; ; ; ; ; ; ; ; ; ; ",
"; ; ; ; ; ; ; ; ; ; ; 1 1 4 e +.#.7.e.N.e.w.%.T Y 1 < < < < < 4 e @.q.e.e.w.@.R w 4 < ; < < 1 1 < 1 ; ; ; ; ; ; ; ; ; ; ; ; ; ; ",
"; ; ; < ; ; ; ; ; < < 1 w e #.q.N.K.T.T.T.K.w.#.6 1 < < < < 1 4 R %.B.Y.T.K.N.7.R w < 1 1 5 w 6 6 4 1 < < ; ; ; ; ; ; < ; ; ; ; ",
"; ; ; ; ; ; ; ; < < 4 w @.8.N.Y.~.~.^.~.Y.K.w.%.Y 6 4 5 4 4 4 5 Y #.e.K.T.T.K.w.@.w 4 4 w p %.%.#.R w 4 < < ; < ; ; ; ; ; ; < ; ",
"; ; ; ; ; ; ; ; < 4 Y @.q.C.Q.~.~.Q.Y.Z.B.e.q.&.@.+.Y R Y Y e e e } O.w.N.B.N.7.a 0 4 4 p %.e.m.e.q.@.e 5 1 < ; ; ; ; ; ; ; ; ; ",
"; ; ; < ; ; ; < 4 w @.w.T.^.~.Q.Z.N.w.w.w.e.e.e.e.N.N.e.w.w.7.&.| } } | %.%.%.R e 4 4 5 H 8.C.~.~.Y.N.&.Y 5 1 < ; ; ; ; ; ; < ; ",
"; ; ; ; ; ; < 1 6 R q.K.~.^.T.B.w.7.7.q.N.K.Y.T.Q.~.~.Q.~.T.Y.C.m.w.&...| R Y e 5 : > 6 H 9.G.^.`._.T.N.%.Y 4 < < ; ; ; ; ; < ; ",
"; < ; ; < < < 4 Y &.B.Q.^.Y.N.&.#.%.9.V.U._.[. X.X.XoX.X.X.X X X(.R.Z.B.0.:.J a 8 , , 0 H 0.G._..X.X`.Q.e.%.w 1 < ; ; ; ; ; < ; ",
"; ; ; < < < < 5 R 7.K.T.T.B.7.#.J -.m.H._.{..X{. X.X.XoXoX+X+X+XoX X`.~.H.C.0.X.H 9 9 r X.M.R.`..XoXoX XY.w.+.6 < < ; ; ; ; ; ; ",
"; ; ; < < < < 5 R 7.N.K.m.7.| } X.>.V.H.!.W.!.!.^._. X XoX+X+X@X@X@XoX.X`._.R.C.9.P H J 3.C.^.[.oX+X+XoX_.Z.7.Y 5 1 < < ; ; ; ; ",
"; < ; ; < < < 4 Y @.q.w.7.X.....:.4.m.V.Z.Z.Z.Z.Y.~._. X.XoX@X@X@X+XoX.X`.`.^.Y.m.:.P P 8.B.R.`.oX+X@X+X X~.e.%.w 1 < < ; ; ; ; ",
"; ; ; ; ; ; < 1 6 p +...X.X.:.:.:.:.-.:.:.>.6.N.K.^.`. X X.XoXoXoX X`._.Q.U.Y.Z.m.8.X.-.9.e.C.T._..X+X+XOX[.G.w.R 5 1 ; ; ; ; ; ",
"; ; ; ; ; < < 1 4 e a J :.9.e.5.:.X.G J ..:.6.K.~._.`. X`.`.`.`.`.`.~.T.Z.B.m.e.9.7.8.8.e.m.B.C.T.^..XoX@XoX^.C.%.Y 5 1 ; ; ; ; ",
"; ; ; ; ; ; : : 6 u | 7.M.Z.G.Z.0...F J :.6.T.W. X X`.^.Q.T.T.T.T.Y.G.Z.B.e.9.7.O.O.8.e.B.B.C.B.C.G.^.[.oXoX X~.N.%.w 1 < ; ; ; ",
"; ; ; ; ; : : 4 q H -.p.G.!.W.R.M.>. .:.h.I._. X X X^.T.Y.G.G.Z.Z.Z.V.j.m.5.8.:.O.O.8.m.C.C.Z.C.C.C.G.~.[..X.X`.K.q.R w 1 ; ; ; ",
"; ; ; ; ; : 4 5 y X.h.G.W.`. X(.Z.j.h.Z.!. X.XXX'.(.J.F.S.v.b.c.c.a.p.<.3.=.=.=.U U 9.h.V.Z.G.Z.C.V.V.Z.J._.`.[.!.C.7.p 4 < ; ; ",
"; ; ; ; ; 1 5 q | >.V.T.`..X X(.U.Z.I.~.}.oXoX|.'.E.J.S.c.c.j.k.v.l.c.c.g.u.p.5.0.5.p.d.Z.n.Z.Z.G.V.M.j.d.Z.J._._.H.w.+.6 1 ; ; ",
"; ; < < : 4 0 H :.e.I.W.{..X`.E.F.D.R.).|.XX.X XR.F.n.g.u.2.1.{ 2.u.g.g.u.f.f.g.c.G.F.F.S.S.v.D.G.v.V.m.0.0.M.H.^.Q.N.%.w 1 < ; ",
"; ; < ; : 5 q H >.c.~.'..X{./.P.n.L.L._.`.).(.P.F.l.f.2._ _ _ =.[ 1.<.2.2.{ ,.1.i.v.E.(.(.E.A.l.v.Z.V.a.4.U 5.V.G.H.m.%.w 1 ; ; ",
"< < < 1 1 5 a ..h.K.(.}.|.'.P.K.b.A.I.D.n.b.n.z.k.g.u.2.,.<.y.y.i.i.p.a.g.j.g.f.u.g.L.(.}.'./.F.v.d.S.d.p.3.>.9.m.e.7.+.6 1 ; ; ",
"< < < < 4 0 R :.j.I.).}.|.}.P.A.b.b.h.2.[ [ 2.f.k.g.a.g.i.s.a.r.3.' S S U <.i.c.c.b.L.L.).|.'./.J.S.v.s.a.0.;.:.&.&.H e 4 1 ; ; ",
"< ; < 1 4 q } -.g.L.).}.|.(.L.b.b.2.~ ! ! ) ` 2.i.z.v.v.l.i.r.r.y.<.<.S B l l S 2.c.n.R./.).}.|.{./.J.v.V.a.-.P H p w 4 < < ; ; ",
"; < < 1 4 0 } ) { L.E.).).E.n.b.h.*.c E W ~ =.u.t.x.D.k.' S S ( { ] ] ` ) A n z n _ f.L./.).|.XXXX]./.J.d.a.4.P H e 5 1 < ; ; ; ",
"; ; < < 2 8 F W [ f.A.L.L.L.b.b.[ ! W W M Q { { t.A.] M g n Z ' r.i.l.l.i.' M Z b k Z t.A./.}.XXOXXX]./.S.a.0.-.a p 4 : : ; ; ; ",
"< ; ; < 1 5 % W ~ 1.f.z.A.A.z.f.*.E W W M / [ r.z.u.m b z b n k k n D r.i.k.{ M M M z Z t.L.).|.OXOXXX).H.a.U U J u 5 : < ; ; ; ",
"; ; ; < < 2 9 % c ~ ( 2.g.b.j.2.W W W W g ^ { t.s.A g z d h       O z Z ' { k.t.Z Z n M ( t.P.}.oXOXXX).H.v.U I J a 6 4 < ; ; ; ",
"; ; ; ; 1 2 9 % v E ( 2.g.b.k.2.~ W W W g ^ r.k.] M m k h       O h b Z ] r.t.k.r.Z S M Z r.F.).XXoXXX).J.v.U I J i 5 1 : ; ; ; ",
"; = ; < 1 8 % E c M _ f.f.g.b.f.,.) ^ W M ^ r.l.] ^ Z b # . . h j l S r.r.r.r.t.k.] S D B ' k./.].XX].).J.F.d.U K i 6 1 < ; ; ; ",
"; < < < 2 p ! ~ ) ) [ u.f.g.b.b.z.f.[ ( Z ^ r.k.{ [ A n h . X h j l D t.s.t.{ r.s.t.S { S ^ k.P.].XX].).J.J.F.d.I H 6 : < ; ; ; ",
"< ; ; < 5 | *.1.2.2.<.u.f.g.L.P.P.D.z.t._ S { t.r.' ( Z h . X # j n [ t.k.t.( ( t.r.D y.r.( s.E.'.XX].).(.(./.H.5.G 0 1 < ; ; ; ",
"< < < 1 0 | 4.2.u.2.2.,.2.k.L.E.).(.A.k.{ / [ { ] ' ( A j O X O j b { t.t.t.( ( r.r.D r.t.] l.J.].].].).[.[.[._.a.L q 1 < ; ; ; ",
"< < < 4 e ..m.c.g.u.=.) 1.k.E.).].).F.x.r.^ M ) / _ _ ^ g s + d k Z { g.t.[ / / { { { s.i.{ n.E.}.'.).).{.oXoX).V.X.w : : ; ; ; ",
"< < 1 5 T 7.B.H.n.u._ ) =.k./.{.].).L.x.i.^ b M ^ Z ^ ^ m f f g ^ [ t.t.[ / W ( { ] i.k.i.{ n.L.(.(.(.'.{.oXoX'.V.P 0 2 ; ; ; ; ",
"< < 1 e &.N.T.!.Q.v._ C [ k./.'.{./.F.k.{ [ z d g A M m g g M Q ( ( [ ^ M m ^ ( ] y.s.k.{ [ f.k.A.F.P./.{.{.{.E.5.J 0 : : ; ; ; ",
"< < w T w.I._.`.(.U.u.*.[ k.L././.P.D.g.2.) ^ z z M ^ M m b m m M M M M M M Z ) r.s.g.j.S ^ _ ,.i.c.L.E.).{.).F.>.H 5 : : : < ; ",
"< < w | N.~. X.X).R.n.g.<.g.S.D.l.k.k.i.<.,.) _ M b n Z _ / / / / _ ` ) m n _ i.k.i.i._ c c V *.u.a.S.J.R.W.G.p.-.} q 6 1 1 < < ",
"< < e #.C._. X X).Q.G.V.v.k.k.g.{ ,.2.y.i.u.2.2.r.] A n m M M A ^ ^ M M Z ] c.l.i.i._ N j v C =.a.c.Z.Z.G.Z.m.>.:.X.+.R e 4 4 < ",
"< 1 w #.C.~. X[._.~.H.G.G.G.n.a.) N V ) u.j.n.A.x.x.s.i.] S A A ) ' ] i.l.S.l.a.u.' N V K I 3.p.j.Z.Z.Z.M.0.>.>.9.9.w.q.%.p 4 1 ",
"< < e #.B.^. X`._.E.U.H.U.U.G.v.1.C N L ,.g.c.D.F.L.P.F.D.S.l.z.z.l.A.v.l.k.t.] ' =.,.<.p.u.a.c.Z.G.G.V.5.:.>.0.m.B.Z.C.e.%.e 1 ",
"< < 6 R e.Q. X X`._._._.^.~.G.V.5.;.I U a.c.l.S.v.A.D.A.A.l.k.g.g.g.g.g.u.u.{ u.l.S.J.R.H.G.v.S.H.U.Z.N.9.8.0.m.B.G.~.Q.C.7.p 4 ",
"< < 6 Y w.T. X X X{.[.[.`._.R.Z.p.3.=.p.S.F.F.F.S.D.S.v.s.i.2.1.' 2.y.u.i.s.S.F./.).'.).E.J.H.J.!.R.C.e.w.w.e.m.C.U._._.K.q.p 4 ",
"< < 4 e %.K._..X+X+X+XoXoX[._.H.V.a.a.Z.J././.J.J.E.J.H.v.j.5.;.2.5.c.n.J.E.).[.oXoXXX{.[.`._._.R.H.B.M.e.e.m.B.Z.T._.^.C.&.p 4 ",
"< < 1 e @.e.^..X+X@X@X@X+XoX`.!.Y.Z.G.H.).[.[.'.).(.'._.!.G.V.N.m.C.G.~.`.[.oXoXOX+XoX.X[.[._.^.U.G.C.B.e.e.e.B.G.~.`.~.N.%.w 1 ",
"< < < 1 R 7.K.`.+X@X@X@X+XOXoX[.`.J.J.J.).{.{.oXXXoXOXoX[.`.!.R.R.~._.`..XoX+XOXOXoX{.[.`._.!.J.U.G.B.N.e.e.m.C.~._.^.K.7.R 5 < ",
"< < < 1 Y +.N.~..X+X+X+X+X+XOXoX{.[.`._.(.'..XoX+X+X@X+X+XoX{.{.[. XoXoXOX+XOX{.{.`.(.E.J.H.H.G.G.Z.M.m.0.e.C.Y.^.^.T.N.+.w 1 < ",
"< < < < 1 Y 7.K.`.oXOXOXOXoX+XOXOX{./.J.H.J./.[.OX+X#X#X#X#X#X@X@X@X@X+XoX[._.R.G.Z.Z.V.C.M.V.V.V.B.m.m.B.C.T.^._.Q.N.&.Y 4 < < ",
"< < < < 1 Y @.N.!.[.oXoXoXOXOXOXoX{._.G.M.M.Z.J.[..X@X@X@X#X#X#X#X#X@XoX`.~.V.m.4.9.3.9.9.0.m.0.0.0.m.V.G.T._.^.T.K.7.R 5 1 < < ",
"< < < < < 4 R 7.K.^..XOXOXOXOXOX{.`.G.m.>.X.-.0.Z.J.[..XOX@X#X#X#X@XOX{.J.V.I P J P P I >.8.-.7.:.9.V.G.!._.R.G.e.7.a w 1 < ; ; ",
"< < < < < 1 w +.e.T. XoXOX+XOXoX{._.G.m.O.H J P -.m.G.!.[.oX+X@X@X@XoX`.G.m.7.L P :.w.4.>.q.P J ..>.M.H.H.H.B.0.$.p 6 1 < ; ; ; ",
"< < < < ; < 4 p %.N.T._..XOXOXOX.X`.U.B.8.P H i G J -.0.Z.J.[.oX+XOX{.`.J.Z.M.M.C.Z.Z.v.M.4.P H H G ;.p.0.>.J i 0 2 : ; ; ; ; ; ",
"< < < < ; < 1 e +.q.C.T._. X.X.X.X[.^.G.m.;.P H i H H P 4.M.H./.{.XX.X[._._././._./._.!.G.M.P u 7 r H G J i 9 2 - : ; ; ; ; ; ; ",
"< < ; ; ; < 1 5 Y R q.N.K.T.^._._._.^.Q.Z.h.4.-.P J H H P I 0.V.H.J.`.[.{.{.{..X.X.X{.[.J.C.I a 7 > , , , > - - ; ; ; ; ; ; ; ; ",
"; < ; ; ; < < 1 6 Y %.w.N.K.Y.Y.T.T.T.T.G.Z.m.0.;.-.O.-.O.>.>.0.a.V.H.J.E.`.{.{.{.{.[./.H.N.P u > * & & & & = = ; ; ; ; ; ; ; ; ",
"; ; ; ; ; < < 1 4 Y R %.w.e.N.N.B.K.K.K.Z.G.Z.V.m.9.0.0.M.V.M.m.0.5.a.V.Z.H.H.J.J.J.H.G.m.U r 7 * & & & & & & = ; ; ; ; ; ; ; ; ",
"; < ; ; ; ; < 1 1 4 Y +.7.w.e.e.e.e.N.B.Z.Z.Z.B.h.m.a.C.H.J.H.Z.M.0.p.5.M.V.V.Z.Z.M.M.4.P i 7 > * & & & & & = ; ; ; ; ; ; ; ; ; ",
"; ; ; ; ; < < < 1 1 Y Y R &.q.w.e.e.e.N.B.N.B.e.9.0.m.Z.J._.!.H.V.a.e.0.p.5.0.0.>.-.P H r , > * & & & = = ; ; ; ; ; ; ; ; ; ; ; ",
"; ; ; ; ; ; ; < < 1 1 Y Y @.&.q.w.w.e.e.e.e.w.q.>.>.>.m.Z.H.H.G.V.m.0.w.8.>.7.L P G u 7 , > & & & & & = ; ; ; ; ; ; ; ; ; ; ; ; ",
"; ; ; ; ; ; ; ; < < 1 4 6 Y +.@.&.q.q.w.w.q.q.q.7.O.&.7.q.0.e.9.I 7.L P P J J H u 7 3 > * & = = ; = = ; ; = ; ; ; ; ; ; ; ; ; ; ",
"; ; ; ; ; ; < ; < < < 1 4 6 Y Y +.#.%.&.7.&.&.&.&.%.%.P P P P H H H a p a u q 0 3 , : : & = = = ; ; ; ; ; ; ; ; ; ; ; ; ; ; ; ; ",
"; ; ; ; < < < ; < < < < < 1 4 6 Y Y Y R R R R R H +.H T p e w 6 6 6 5 5 4 5 4 4 : : = = = ; = ; ; ; ; ; ; ; ; ; ; ; ; ; ; ; ; ; ",
"; < ; ; < < < < < < < < < < 1 1 4 6 6 w w e w e e e e e 6 4 4 1 : 1 1 1 1 < < < < ; = ; ; ; ; ; ; ; ; ; ; ; ; ; ; ; ; ; ; ; ; ; ",
"; ; ; ; < < < < < < < < < < < < 1 1 1 1 4 4 1 1 1 1 1 1 1 : : ; < ; < < < < < < ; ; ; ; ; ; ; ; ; ; ; ; ; ; ; ; ; ; ; ; ; ; ; ; ",
"; ; ; < < < < < < < < < < < < < < < 1 1 < < 1 < < < < < < ; ; ; ; ; ; ; ; ; ; ; ; ; ; ; ; ; ; ; ; ; ; ; ; ; ; ; ; ; ; ; ; ; ; ; "
};
