/* XPM */
static char *dd[] = {
/* columns rows colors chars-per-pixel */
"64 64 147 2 ",
"   c #1F71A3",
".  c #1F72A4",
"X  c #1F72A5",
"o  c #1F73A5",
"O  c #1E73A6",
"+  c #1E74A7",
"@  c #1E75A8",
"#  c #1D76A9",
"$  c #1D76AA",
"%  c #1C77AA",
"&  c #1C77AB",
"*  c #1C78AB",
"=  c #1B79AD",
"-  c #1B7AAD",
";  c #1A7BAF",
":  c #1C78AC",
">  c #1C79AC",
",  c #197DB1",
"<  c #1A7CB0",
"1  c #197EB2",
"2  c #187FB4",
"3  c #216EA0",
"4  c #216FA1",
"5  c #2070A2",
"6  c #2070A3",
"7  c #2772A3",
"8  c #2E77A6",
"9  c #3078A7",
"0  c #3179A7",
"q  c #3978A4",
"w  c #5A759A",
"e  c #5F749B",
"r  c #626A8E",
"t  c #626A8F",
"y  c #636B8F",
"u  c #666E93",
"i  c #676F94",
"p  c #6B749B",
"a  c #6F79A1",
"s  c #747CA5",
"d  c #757DA6",
"f  c #1781B6",
"g  c #1782B7",
"h  c #1682B8",
"j  c #1782B8",
"k  c #1683B8",
"l  c #1683B9",
"z  c #1684B9",
"x  c #1585BA",
"c  c #1585BB",
"v  c #1586BB",
"b  c #1586BC",
"n  c #1487BD",
"m  c #1488BD",
"M  c #3E82AD",
"N  c #328CBB",
"B  c #5481AD",
"V  c #4C8CB3",
"C  c #4E8DB4",
"Z  c #5489B7",
"A  c #5995B9",
"S  c #6383AE",
"D  c #7789A7",
"F  c #708AAB",
"G  c #798AA8",
"H  c #619ABD",
"J  c #7C93B6",
"K  c #1389C0",
"L  c #138AC0",
"P  c #128BC0",
"I  c #128CC2",
"U  c #118DC4",
"Y  c #118EC4",
"T  c #0F90C8",
"R  c #0F91C8",
"E  c #0F92C9",
"W  c #0E93CA",
"Q  c #0E94CB",
"!  c #0D95CC",
"~  c #0D96CC",
"^  c #0D96CD",
"/  c #0C97CD",
"(  c #0D96CE",
")  c #0C97CE",
"_  c #1090C6",
"`  c #0B99D0",
"'  c #0B99D1",
"]  c #0B9AD2",
"[  c #0A9BD3",
"{  c #099CD4",
"}  c #0A9CD4",
"|  c #099DD6",
" . c #099ED6",
".. c #089ED7",
"X. c #099ED7",
"o. c #089FD8",
"O. c #2297CA",
"+. c #2198CB",
"@. c #3E97C9",
"#. c #389BCF",
"$. c #07A0D9",
"%. c #07A1D9",
"&. c #07A1DA",
"*. c #07A2DB",
"=. c #06A2DC",
"-. c #06A3DC",
";. c #06A4DD",
":. c #05A4DE",
">. c #05A5DE",
",. c #05A5DF",
"<. c #06A4DE",
"1. c #05A6DF",
"2. c #0FA5DC",
"3. c #1EA1D6",
"4. c #16A5DD",
"5. c #3FA0CC",
"6. c #23A9DB",
"7. c #30A6D6",
"8. c #05A6E0",
"9. c #04A7E1",
"0. c #03A8E2",
"q. c #03A9E3",
"w. c #07ABE3",
"e. c #03A9E4",
"r. c #02AAE5",
"t. c #02ABE5",
"y. c #02ABE6",
"u. c #01ACE7",
"i. c #01ADE7",
"p. c #02ACE6",
"a. c #02ACE7",
"s. c #0FADE4",
"d. c #01ADE8",
"f. c #00AEE8",
"g. c #01AEE8",
"h. c #00AEE9",
"j. c #00AFE9",
"k. c #00AFEA",
"l. c #70A4C4",
"z. c #76A7C4",
"x. c #76A8C6",
"c. c #7CB0CD",
"v. c #46BEE8",
"b. c #869CB7",
"n. c #9AC1D6",
"m. c #A7C8DA",
"M. c #A8CBDD",
/* pixels */
"j.j.j.j.k.k.k.k.k.k.k.k.k.k.k.k.k.k.k.k.k.k.k.k.k.k.k.k.k.k.k.k.k.k.k.k.k.k.k.k.k.k.k.k.k.k.k.k.k.k.k.k.k.k.k.k.k.k.k.k.k.k.k.k.",
"j.j.k.j.k.k.k.k.k.k.k.k.k.k.k.k.k.k.k.k.k.k.k.k.k.k.k.k.k.k.k.k.k.k.k.k.k.k.k.k.k.k.k.k.k.k.k.k.k.k.k.k.k.k.k.k.k.k.k.k.k.k.k.k.",
"j.k.k.k.k.k.k.k.k.k.k.k.k.k.k.k.k.k.k.k.k.k.k.k.k.k.k.k.k.k.k.k.k.k.k.k.k.k.k.k.k.k.k.k.k.k.k.k.k.k.k.k.k.k.k.k.k.k.k.k.k.k.k.k.",
"j.k.k.k.k.k.k.k.k.k.k.k.k.k.k.k.k.k.k.k.k.k.k.k.k.k.k.k.k.k.k.k.k.k.k.k.k.k.k.k.k.k.k.k.k.k.k.k.k.k.k.k.k.k.k.k.k.k.k.k.k.k.k.k.",
"j.k.k.k.k.k.k.k.k.k.k.k.k.k.k.k.k.k.k.k.k.k.k.k.k.k.k.k.k.k.k.k.k.k.k.k.k.k.k.k.k.k.k.k.k.k.k.k.k.k.k.k.k.k.k.k.k.k.k.k.k.k.k.k.",
"j.k.k.k.k.k.k.k.k.k.k.k.k.k.k.k.k.k.k.k.k.k.k.k.k.k.k.k.k.k.k.k.k.k.k.k.k.k.k.k.k.k.k.k.k.k.k.k.k.k.k.k.k.k.k.k.k.k.k.k.k.k.k.k.",
"j.k.k.k.k.k.k.k.k.k.k.k.k.k.k.k.k.k.k.k.k.k.k.k.k.k.k.k.k.k.k.k.k.k.k.k.k.k.k.k.k.k.k.k.k.k.k.k.k.k.k.k.k.k.k.k.k.k.k.k.k.k.k.k.",
"j.k.k.k.k.k.k.k.k.k.k.k.k.k.k.k.k.k.k.k.k.k.k.k.k.k.k.k.k.k.k.k.k.k.k.k.k.k.k.k.k.k.k.k.k.k.k.k.k.k.k.k.k.k.k.k.k.k.k.k.k.k.k.k.",
"j.k.k.k.k.k.k.k.k.k.k.k.k.k.k.k.k.k.k.k.k.k.k.k.k.k.k.k.k.k.k.k.k.k.k.k.k.k.k.k.k.k.k.k.k.k.k.k.k.k.k.k.k.k.k.k.k.k.k.k.k.k.k.k.",
"j.k.k.k.k.k.k.k.k.k.k.k.k.k.k.k.k.k.k.k.k.k.k.k.k.k.k.k.k.k.k.k.k.k.k.k.k.k.k.k.k.k.k.k.k.k.k.k.k.k.k.k.k.k.k.k.k.k.k.k.k.k.k.k.",
"j.k.k.k.k.k.k.k.k.k.k.k.k.k.k.k.k.k.k.k.k.k.k.k.k.k.k.k.k.k.k.k.k.k.k.k.k.k.k.k.k.k.k.k.k.k.k.k.k.k.k.k.k.k.k.k.k.k.k.k.k.k.k.k.",
"j.k.k.k.k.k.k.k.k.k.k.k.k.k.k.k.k.k.k.k.k.k.k.k.k.k.k.k.k.k.k.k.k.k.k.k.k.k.k.k.k.k.k.k.k.k.k.k.k.k.k.k.k.k.k.k.k.k.k.k.k.k.k.k.",
"j.k.k.k.k.k.k.k.k.k.k.k.k.k.k.k.k.k.k.k.k.k.k.k.k.k.k.k.k.k.k.k.k.k.k.k.k.k.k.k.k.k.k.k.k.k.k.k.k.k.k.k.k.k.k.k.k.k.k.k.k.k.k.k.",
"j.k.k.k.k.k.k.k.k.k.k.k.k.k.k.k.k.k.k.k.k.k.k.k.k.k.k.k.k.k.k.k.k.k.k.k.k.k.k.k.k.k.k.k.k.k.k.k.k.k.k.k.k.k.k.k.k.k.k.k.k.k.k.k.",
"j.k.k.k.k.k.k.k.k.k.k.k.k.k.k.k.k.k.k.k.k.k.k.k.k.k.k.k.k.k.k.k.k.k.k.k.k.k.k.k.k.k.k.k.k.k.k.k.k.k.k.k.k.k.k.k.k.k.k.k.k.k.k.k.",
"j.k.k.k.k.k.k.k.k.k.k.k.k.k.k.k.k.k.k.k.k.k.k.k.k.k.k.k.k.k.k.k.k.k.k.k.k.k.k.k.k.k.k.k.k.k.k.k.k.k.k.k.k.k.k.k.k.k.k.k.k.k.k.k.",
"j.k.k.k.k.k.k.k.k.k.k.k.k.k.k.k.k.k.k.k.k.k.k.k.k.k.k.k.k.k.k.k.k.k.k.k.k.k.k.k.k.k.k.k.k.k.k.k.k.k.k.k.k.k.k.k.k.k.k.k.k.k.k.k.",
"j.k.k.k.k.k.k.k.k.k.k.k.k.k.k.k.k.k.k.k.k.k.k.k.k.k.k.k.k.k.k.k.k.k.k.k.k.k.k.k.k.k.k.k.k.k.k.k.k.k.k.k.k.k.k.k.k.k.k.k.k.k.k.k.",
"j.k.k.k.k.k.k.k.k.k.k.k.k.k.k.k.k.k.k.k.k.k.k.k.k.k.k.k.k.k.k.k.k.k.k.k.k.k.k.k.k.k.k.k.k.k.k.k.k.k.k.k.k.k.k.k.k.k.k.k.k.k.k.k.",
"j.k.k.k.k.k.k.k.k.k.k.k.k.k.k.k.k.k.k.k.k.k.k.k.k.k.k.k.k.k.k.k.k.k.k.k.k.k.k.k.k.k.k.k.k.k.k.k.k.k.k.k.k.k.k.k.k.k.k.k.k.k.k.k.",
"j.k.k.k.k.k.k.k.k.k.k.k.k.k.k.k.k.k.k.k.k.k.k.k.k.k.k.k.k.k.k.k.k.k.k.k.k.k.k.k.k.k.k.k.k.k.k.k.k.k.k.k.k.k.k.k.k.k.k.k.k.k.k.k.",
"j.k.k.k.k.k.k.k.k.k.k.k.k.k.k.k.k.k.k.k.k.k.k.k.k.k.k.k.k.k.k.k.k.k.k.k.k.k.k.k.k.k.k.k.k.k.k.k.k.k.k.k.k.k.k.k.k.k.k.k.k.k.k.k.",
"j.k.k.k.k.k.k.k.k.k.k.k.k.k.k.k.k.k.k.k.k.k.k.k.k.k.k.k.k.k.k.k.k.k.k.k.k.k.k.k.k.k.k.k.k.k.k.k.k.k.k.k.k.k.k.k.k.k.k.k.k.k.k.k.",
"j.k.k.k.k.k.k.k.k.k.k.k.k.k.k.k.k.k.k.k.k.k.k.k.k.k.k.k.k.k.k.k.k.k.k.k.k.k.k.k.k.k.k.k.k.k.k.k.k.k.k.k.k.k.k.k.k.k.k.k.k.k.k.k.",
"j.k.k.k.k.k.k.k.k.k.k.k.k.k.k.k.k.k.k.k.k.k.k.k.k.k.k.k.k.k.k.k.k.k.k.k.k.k.k.k.k.k.k.k.k.k.k.k.k.k.k.k.k.k.k.k.k.k.k.k.k.k.k.k.",
"j.k.k.k.k.k.k.k.k.k.k.k.k.k.k.k.k.k.k.k.k.k.k.k.k.k.k.k.k.k.k.k.k.k.k.k.k.k.k.k.k.k.k.k.k.k.k.k.k.k.k.k.k.k.k.k.k.k.k.k.k.k.k.k.",
"j.k.k.k.k.k.k.k.k.k.k.k.k.k.k.k.k.k.k.k.k.k.k.k.k.k.k.k.k.k.k.k.k.k.k.k.k.k.k.k.k.k.k.k.k.k.k.k.k.k.k.k.k.k.k.k.k.k.k.k.k.k.k.k.",
"j.k.k.k.k.k.k.k.k.k.k.k.k.k.k.k.k.k.k.k.k.k.k.k.k.k.k.k.k.k.k.k.k.k.k.k.k.k.k.k.k.k.k.k.k.k.k.k.k.k.k.k.k.k.k.k.k.k.k.k.k.k.k.k.",
"j.k.k.k.k.k.k.k.k.k.k.k.k.k.k.k.k.k.k.k.k.k.k.k.k.k.k.k.k.k.k.k.k.k.k.k.k.k.k.k.k.k.k.k.k.k.k.k.k.k.k.k.k.k.k.k.k.k.k.k.k.k.k.k.",
"j.k.k.k.k.k.k.k.k.k.k.k.k.k.k.k.k.k.k.k.k.k.k.k.k.k.k.k.k.k.k.k.k.k.k.k.k.k.k.k.k.k.k.k.k.k.k.k.k.k.k.k.k.k.k.k.k.k.k.k.k.k.k.k.",
"j.k.k.k.k.k.k.k.k.k.k.k.k.k.k.k.k.k.k.k.k.k.k.k.k.k.k.k.k.k.k.k.k.k.k.k.k.k.k.k.k.k.k.k.k.k.k.k.k.k.k.k.k.k.k.k.k.k.k.k.k.k.k.k.",
"j.k.k.k.k.k.k.k.k.k.k.k.k.k.k.k.k.k.k.k.k.k.k.k.k.k.k.k.k.k.k.k.j.+.@.4.k.k.k.k.k.k.k.k.k.k.k.k.k.k.k.k.k.k.k.k.k.k.k.k.k.k.k.k.",
"j.j.j.j.k.k.k.k.k.k.k.k.k.k.k.k.k.k.k.k.k.k.k.k.k.k.k.k.k.k.k.k.j.w.e s S #.2.j.k.k.k.j.k.k.j.j.k.k.k.k.j.k.k.k.k.k.k.k.k.k.k.k.",
"j.( K ' k.k.k.k.k.k.k.k.k.k.k.k.k.k.k.k.k.k.k.k.k.k.k.k.k.k.k.k.k.k.N r u a Z 3.k.T l T &.j.j.j.k.k.k.k.j.j.k.k.k.k.k.k.k.k.k.k.",
"j.j.& 3 3 L 8.j.k.k.k.k.k.k.k.k.k.k.k.k.k.k.k.k.k.k.k.k.k.k.k.k.k.k.+.r r r u d B 7.3 3 3 1 ( ( ( ( ) o.8.j.k.j.k.k.k.k.k.k.k.k.",
"j.j.( O 3 3 1 =.k.k.k.k.k.k.k.k.k.k.k.k.k.k.k.j.k.k.k.k.k.v.8.s.6.5.c.u r r r u p J M 3 3 3 3 3 3 3 3 + - l 8.y.k.k.k.k.k.k.k.k.",
"j.j.j.Y 3 3 3 O 8.k.k.k.k.k.k.k.k.k.k.k.0.8.8.o.' ' Y & & 4 H n.M.z.m.b.D w D F q z.7 3 3 3 3 3 3 3 3 3 3 3 3 + l &.p.k.k.k.y.K ",
"j.j.k.w.3 3 3 3 v k.k.k.k.k.k.k.k.&.v v 1 < < + 3 3 3 3 3 3 3 3 C C A l.V 8 V V 0 9 3 3 3 3 3 3 3 3 3 3 3 3 3 3 3 & l o.k.k.j.8.",
"j.k.k.k.| 6 3 3 3 v ' ' l l j + 3 3 3 3 3 3 3 3 3 3 3 3 3 3 3 3 3 3 3 3 3 3 3 3 3 3 3 3 3 3 3 3 3 3 3 3 3 3 3 3 3 3 3 & =.j.j.j.",
"j.k.k.k.=.& 3 3 3 3 3 3 3 3 3 3 3 3 3 3 3 3 3 3 3 3 3 3 3 3 3 3 3 3 3 3 3 3 3 3 3 3 3 3 3 3 3 3 3 3 3 3 3 3 3 3 3 3 3 3 j y.k.k.",
"j.k.k.k.k.Y 3 3 3 3 3 3 3 3 3 3 3 3 3 3 3 3 3 3 3 3 3 3 3 3 3 3 3 3 3 3 3 3 3 3 3 3 3 3 3 3 3 3 3 3 3 3 3 3 3 3 3 3 4 3 T p.k.k.",
"j.k.k.k.k.Y 3 3 3 3 3 3 3 3 3 3 3 3 3 3 3 3 3 3 3 3 3 3 3 3 3 3 3 3 3 3 3 3 3 3 3 3 3 3 3 3 3 3 3 3 3 3 3 3 3 3 3 3 6 T p.k.k.k.",
"j.k.k.k.p.l 3 3 3 6 - & - 6 3 3 3 3 3 3 3 3 3 3 3 3 3 3 3 3 3 3 3 3 3 3 3 3 3 3 3 3 3 3 3 3 3 3 3 3 3 3 3 3 3 3 6 1 j.k.k.k.k.k.",
"j.k.k.k.=.& 3 3 3 T 8.8.8.} } ' + 6 6 + 3 3 3 3 3 3 3 3 3 3 3 3 3 3 3 3 3 3 3 3 3 3 3 3 3 3 3 3 3 3 3 3 3 3 6 & o.y.j.j.k.k.k.k.",
"j.j.j.j.L 3 3 3 v p.k.k.k.k.k.k.k.k.k.} 4 + Y o.) v x & O + 3 3 3 3 3 3 3 3 3 3 3 3 3 3 3 3 3 3 3 6 - l W o.k.k.k.k.k.k.k.k.k.k.",
"j.j.j.&.3 3 3 l 0.k.k.k.k.k.k.k.k.k.k.} ) o.k.k.k.k.k.8.o.o.W T l 3 3 3 3 3 3 3 3 3 3 3 3 3 & Y W } 8.k.k.k.k.k.k.k.k.k.k.k.k.k.",
"j.k.o.& 3 4 ! q.k.k.k.k.k.k.k.k.k.k.k.k.k.k.k.k.k.k.k.k.j.k.k.k.j.j.k.k.k.k.k.k.j.k.< 3 3 3 T p.k.k.j.j.k.k.k.k.k.k.k.k.k.k.k.k.",
"j.k.T v U } j.j.k.k.k.k.k.k.k.k.k.k.k.k.k.k.k.k.k.k.k.k.k.k.k.k.j.j.k.k.k.k.k.k.k.p.6 3 3 v k.k.k.k.k.k.k.k.k.k.k.k.k.k.k.k.k.k.",
"j.k.k.k.k.k.k.k.k.k.k.k.k.k.k.k.k.k.k.k.k.k.k.k.k.k.k.k.k.k.k.k.k.k.k.k.k.k.k.k.k.l + < ( j.k.k.k.k.k.k.k.k.k.k.k.k.k.k.k.k.k.k.",
"j.k.k.k.k.k.k.k.k.k.k.k.k.k.k.k.k.k.k.k.k.k.k.k.k.k.k.k.k.k.k.k.k.k.k.k.k.k.k.k.k.o.o.0.j.k.k.k.k.k.k.k.k.k.k.k.k.k.k.k.k.k.k.k.",
"j.k.k.k.k.k.k.k.k.k.k.k.k.k.k.k.k.k.k.k.k.k.k.k.k.k.k.k.k.k.k.k.k.k.k.k.k.k.k.k.k.k.k.k.j.k.k.k.k.k.k.k.k.k.k.k.k.k.k.k.k.k.k.k.",
"j.k.k.k.k.k.k.k.k.k.k.k.k.k.k.k.k.k.k.k.k.k.k.k.k.k.k.k.k.k.k.k.k.k.k.k.k.k.k.k.k.k.k.k.k.k.k.k.k.k.k.k.k.k.k.k.k.k.k.k.k.k.k.k.",
"j.k.k.k.k.k.k.k.k.k.k.k.k.k.k.k.k.k.k.k.k.k.k.k.k.k.k.k.k.k.k.k.k.k.k.k.k.k.k.k.k.k.k.k.k.k.k.k.k.k.k.k.k.k.k.k.k.k.k.k.k.k.k.k.",
"j.k.k.k.k.k.k.k.k.k.k.k.k.k.k.k.k.k.k.k.k.k.k.k.k.k.k.k.k.k.k.k.k.k.k.k.k.k.k.k.k.k.k.k.k.k.k.k.k.k.k.k.k.k.k.k.k.k.k.k.k.k.k.k.",
"j.k.k.k.k.k.k.k.k.k.k.k.k.k.k.k.k.k.k.k.k.k.k.k.k.k.k.k.k.k.k.k.k.k.k.k.k.k.k.k.k.k.k.k.k.k.k.k.k.k.k.k.k.k.k.k.k.k.k.k.k.k.k.k.",
"j.k.k.k.k.k.k.k.k.k.k.k.k.k.k.k.k.k.k.k.k.k.k.k.k.k.k.k.k.k.k.k.k.k.k.k.k.k.k.k.k.k.k.k.k.k.k.k.k.k.k.k.k.k.k.k.k.k.k.k.k.k.k.k.",
"j.k.k.k.k.k.k.k.k.k.k.k.k.k.k.k.k.k.k.k.k.k.k.k.k.k.k.k.k.k.k.k.k.k.k.k.k.k.k.k.k.k.k.k.k.k.k.k.k.k.k.k.k.k.k.k.k.k.k.k.k.k.k.k.",
"j.k.k.k.k.k.k.k.k.k.k.k.k.k.k.k.k.k.k.k.k.k.k.k.k.k.k.k.k.k.k.k.k.k.k.k.k.k.k.k.k.k.k.k.k.k.k.k.k.k.k.k.k.k.k.k.k.k.k.k.k.k.k.k.",
"j.k.k.k.k.k.k.k.k.k.k.k.k.k.k.k.k.k.k.k.k.k.k.k.k.k.k.k.k.k.k.k.k.k.k.k.k.k.k.k.k.k.k.k.k.k.k.k.k.k.k.k.k.k.k.k.k.k.k.k.k.k.k.k.",
"j.k.k.k.k.k.k.k.k.k.k.k.k.k.k.k.k.k.k.k.k.k.k.k.k.k.k.k.k.k.k.k.k.k.k.k.k.k.k.k.k.k.k.k.k.k.k.k.k.k.k.k.k.k.k.k.k.k.k.k.k.k.k.k.",
"j.k.k.k.k.k.k.k.k.k.k.k.k.k.k.k.k.k.k.k.k.k.k.k.k.k.k.k.k.k.k.k.k.k.k.k.k.k.k.k.k.k.k.k.k.k.k.k.k.k.k.k.k.k.k.k.k.k.k.k.k.k.k.k.",
"j.k.k.k.k.k.k.k.k.k.k.k.k.k.k.k.k.k.k.k.k.k.k.k.k.k.k.k.k.k.k.k.k.k.k.k.k.k.k.k.k.k.k.k.k.k.k.k.k.k.k.k.k.k.k.k.k.k.k.k.k.k.k.k.",
"j.k.k.k.k.k.k.k.k.k.k.k.k.k.k.k.k.k.k.k.k.k.k.k.k.k.k.k.k.k.k.k.k.k.k.k.k.k.k.k.k.k.k.k.k.k.k.k.k.k.k.k.k.k.k.k.k.k.k.k.k.k.k.k.",
"j.k.k.k.k.k.k.k.k.k.k.k.k.k.k.k.k.k.k.k.k.k.k.k.k.k.k.k.k.k.k.k.k.k.k.k.k.k.k.k.k.k.k.k.k.k.k.k.k.k.k.k.k.k.k.k.k.k.k.k.k.k.k.k."
};
