/* XPM */
static char *fishh[] = {
/* columns rows colors chars-per-pixel */
"64 64 221 2 ",
"   c #566C13",
".  c #586F15",
"X  c #5B7116",
"o  c #5D7419",
"O  c #5F781F",
"+  c #60771C",
"@  c #637A1E",
"#  c #5E7C27",
"$  c #667D21",
"%  c #687F22",
"&  c #755A69",
"*  c #78626C",
"=  c #717778",
"-  c #6D6C78",
";  c #BB1A15",
":  c #B13110",
">  c #AC1E20",
",  c #AE3B31",
"<  c #CD1503",
"1  c #CA1906",
"2  c #D51B05",
"3  c #DA1C06",
"4  c #D51606",
"5  c #DA2405",
"6  c #DD2D05",
"7  c #DF2308",
"8  c #D62905",
"9  c #D93606",
"0  c #D53D14",
"q  c #C62815",
"w  c #E02508",
"e  c #E32B09",
"r  c #E13306",
"t  c #E23B05",
"y  c #E33209",
"u  c #E63B09",
"i  c #E83A0A",
"p  c #885B16",
"a  c #B4450D",
"s  c #B85412",
"d  c #B16D15",
"f  c #B35A3A",
"g  c #AF4D36",
"h  c #867122",
"j  c #B5673B",
"k  c #B9743A",
"l  c #8B6B13",
"z  c #D64913",
"x  c #D05616",
"c  c #E44305",
"v  c #E44A05",
"b  c #E64508",
"n  c #E8440A",
"m  c #EA4B0A",
"M  c #E74B07",
"N  c #E55106",
"B  c #E95306",
"V  c #EB5B05",
"C  c #EC5409",
"Z  c #EC5D09",
"A  c #E55C05",
"S  c #D7721E",
"D  c #EC6505",
"F  c #ED6B05",
"G  c #ED6309",
"H  c #EE6C09",
"J  c #F16C08",
"K  c #EF7205",
"L  c #EF7509",
"P  c #F07406",
"I  c #F17C05",
"U  c #F07708",
"Y  c #E06416",
"T  c #D35620",
"R  c #CB4820",
"E  c #903842",
"W  c #8A434F",
"Q  c #8D5251",
"!  c #965854",
"~  c #904B51",
"^  c #A55445",
"/  c #9E7754",
"(  c #9A6E52",
")  c #A66949",
"_  c #A97946",
"`  c #827A6C",
"'  c #5E863A",
"]  c #5D8335",
"[  c #6B8225",
"{  c #6F8628",
"}  c #658129",
"|  c #70872A",
" . c #738B2C",
".. c #718927",
"X. c #658938",
"o. c #778E30",
"O. c #788F30",
"+. c #7B9333",
"@. c #7B9335",
"#. c #3E885F",
"$. c #3D865D",
"%. c #3C967C",
"&. c #348E76",
"*. c #548B4C",
"=. c #558E53",
"-. c #579258",
";. c #498955",
":. c #6C8A53",
">. c #448E64",
",. c #479167",
"<. c #4A9165",
"1. c #499469",
"2. c #4F986D",
"3. c #40916D",
"4. c #52996B",
"5. c #429B7E",
"6. c #559F73",
"7. c #7BA278",
"8. c #7A9479",
"9. c #AF831D",
"0. c #839A3A",
"q. c #839039",
"w. c #BB8238",
"e. c #B78939",
"r. c #BD9539",
"t. c #D39811",
"y. c #CF8916",
"u. c #EB8709",
"i. c #F38405",
"p. c #F58B05",
"a. c #F38809",
"s. c #F69304",
"d. c #F79A04",
"f. c #F89D03",
"g. c #DFAC1B",
"h. c #F8A202",
"j. c #F9AB03",
"k. c #F6A805",
"l. c #FBB302",
"z. c #FCB902",
"x. c #E3AF18",
"c. c #C29734",
"v. c #CF8C28",
"b. c #CAB230",
"n. c #EF9A2C",
"m. c #918552",
"M. c #A18D53",
"N. c #A39951",
"B. c #A39551",
"V. c #B18F44",
"C. c #A5A550",
"Z. c #A6A74F",
"A. c #88996B",
"S. c #858B6C",
"D. c #8CA367",
"F. c #ADA065",
"G. c #E0BC4E",
"H. c #FBD269",
"J. c #5A738D",
"K. c #477D9D",
"L. c #586785",
"P. c #677C85",
"I. c #359989",
"U. c #319D94",
"Y. c #2F9990",
"T. c #35A097",
"R. c #1D9BA7",
"E. c #3987AD",
"W. c #229EA7",
"Q. c #2E9AAE",
"!. c #3D97AB",
"~. c #2E8BB6",
"^. c #2C99BF",
"/. c #349AB8",
"(. c #3596B6",
"). c #19A5BD",
"_. c #19A3B9",
"`. c #24A1A9",
"'. c #28A5AC",
"]. c #2EA3A2",
"[. c #36A8B7",
"{. c #36B1B8",
"}. c #3CA2AD",
"|. c #429D82",
" X c #4B839D",
".X c #4A8B9D",
"XX c #4F939F",
"oX c #519B9D",
"OX c #51959F",
"+X c #5E8392",
"@X c #698286",
"#X c #698B85",
"$X c #6C9C84",
"%X c #52A49D",
"&X c #53AB9D",
"*X c #54B19D",
"=X c #45A085",
"-X c #6CA786",
";X c #65B18D",
":X c #478CA6",
">X c #47A4A8",
",X c #49B0A8",
"<X c #209BC9",
"1X c #1BA5C8",
"2X c #0AABDC",
"3X c #0BAAD7",
"4X c #1AA3D1",
"5X c #1BABD1",
"6X c #11A9D5",
"7X c #1CB0D0",
"8X c #1CB0CF",
"9X c #29B1C4",
"0X c #23A8C5",
"qX c #04AEE5",
"wX c #09ACE1",
"eX c #00AFEA",
"rX c #14B2E7",
"tX c #39BFE9",
"yX c #4BABC6",
"uX c #83B181",
"iX c #A8CFBC",
/* pixels */
"eXeXeXeXeXeXeXeXeXeXeXeXeXeXeXeXeXeXeXeXeXeXeXeXeXeXeXeXeXeXeXeXeXeXeXeXeXeXeXeXeXeXeXeXeXeXeXeXeXeXeXeXeXeXeXeXeXeXeXeXeXeXeXeX",
"eXeXeXeXeXeXeXeXeXeXeXeXeXeXeXeXeXeXeXeXeXeXeXeXeXeXeXeXeXeXeXeXeXeXeXeXeXeXeXeXeXeXeXeXeXeXeXeXeXeXeXeXeXeXeXeXeXeXeXeXeXeXeXeX",
"eXeXeXeXeXeXeXeXeXeXeXeXeXeXeXeXeXeXeXeXeXeXeXeXeXeXeXeXeXeXeXeX'.`.W.`.W.W.W.3XeXeXeXeXeXeXeXeXeXeXeXeXeXeXeXeXeXeXeXeXeXeXeXeX",
"eXeXeXeXeXeXeXeXeXeXeXeXeXeXeXeXeXeXeXeXeXeXeXeXeXeXeXeXeXeX2.4. .{ %  .+ o o ;.#._.eXeXeXeXeXeXeXeXeXeXeXeXeXeXeXeXeXeXeXeXeXeX",
"eXeXeXeXeXeXeXeXeXeXeXeXeXeXeXeXeXeXeXeXeXeXeXeXeXeXeXeX|. .O. . .{ % + o X o o o O =.3XeXeXeXeXeXeXeXeXeXeXeXeXeXeXeXeXeXeXeXeX",
"eXeXeXeXeXeXeXeXeXeXeXeXeXeXeXeXeXeXeXeXeXeXeXeXeXeXeXU.{ O. .+. .{ [ + o X X + @ @ [ =.eXeXeXeXeXeXeXeXeXeXeXeXeXeXeXeXeXeXeXeX",
"eXeXeXeXeXeXeXeXeXeXeXeXeXeXeXeXeXeXeXeXeXeXeXeXeXeX`.[ { .. . .{ | $ +   + o  .O [ [ { 1.eXeXeXeXeXeXeXeXeXeXeXeXeXeXeXeXeXeXeX",
"eXeXeXeXeXeXeXeXeXeXeXeXeXeXeXeXeXeXeXeXeXeXeXeXeXeX=.$ [ +.0.0.0.| $ +.{ +   o @ [ [  .-.wXeXeXeXeXeXeXeXeXeXeXeXeXeXeXeXeXeXeX",
"eXeXeXeXeXeXeXeXeXeXeXeXeXeXeXeXeXeXeXeXeXeXeXeXeXeX..[ @ @ [ [ $ + + X @ + 0.[ [ { 0.O.:.).qXeX8Xb.*X[.eXeXeXeXeXeXeXeXeXeXeXeX",
"eXeXeXeXeXeXeXeXeXeXeXeXeXeXeXeXeXeXeXeXeXeXeXeXeXeX%.[ [ [ o O + o o X @ X X +  .} @.O.6.qXeXeXb.z.l.g.#XeXeXeXeXeXeXeXeXeXeXeX",
"eXeXeXeXeXeXeXeXeXeXeXeXeXeXeXeXeXeXeXeXeXeXeXeXeXeX_.' [ [ ..[ [ @ o X + @ + $ [ [ [ O.U.eX7X:.H.z.l.l.e.3XeXeXeXeXeXeXeXeXeXeX",
"eXeXeXeXeXeXeXeXeXeXeXeXeXeXeXeXeXeXeXeXeXeXeXeXeXeXeX_.[ +...[ $ @ + o + $ @ @ [ | @.|.eXqX&Xj.l.l.l.l.u.!.eXeXeXeXeXeXeXeXeXeX",
"eXeXeXeXeXeXeXeXeXeXeXeXeXeXeXeXeXeXeXeXeXeXeXeXeXeXeXeXwXI.*...[ $ + + o + + % ] ,.eXeXeXeXD.h.k.k.k.k.i.= eXeXeXeXeXeXeXeXeXeX",
"eXeXeXeXeXeXeXeXeXeXeXeXeXeXeXeXeXeXeXeXeXeXeXeXeXeXeXeXeXeX1X`.%.[ +   X + *.`.1XeXeXeXeXeXp.d.k.k.h.h.a.0 eXeXeXeXeXeXeXeXeXeX",
"eXeXeXeXeXeXeXeXeXeXeXeXeXeXeXeXeXeXeXeXeXeXeXeXeXeXeXeXeXeXeXeXeXeXeXeXeXeXeXeXeXeXeXeXeXeXI s.s.d.d.d.D 9 eXeXeXeXeXeXeXeXeXeX",
"eXeXeXeXeXeXeXeXeXeXeXeXeXeXeXeXeXeXeXeXeXeXeXeXeXeXeXeXeXeXeXeXeXeXeXeXeXeXeXeXeXeXeXeXeX@XN F i.s.K A u N eXeXeXeXeXeXeXeXeXeX",
"eXeXeXeXeXeXeXeXeXeXeXeXeXeXeXeXeXeXeXeXeXeXeXeXeXeXeXeXeXeXeX9XeXeXeXeXeXeXeXeXeXeXeXeX^.f 6 F V P F c c 8 ^ 4XeXeXeXeXeXeXeXeX",
"eXeXeXeXeXeXeXeXeXeXeXeXeXeXeXeXeXeXeXeXeXeXeXeXeXeXeXeXeXeX*Xb.Z.iXeXeXeXeXeXeXeXeXeXeXw.N 9 t B V K m v 1 5 f P.eXeXeXeXeXeXeX",
"eXeXeXeXeXeXeXeXeXeXeXeXeXeXeXeXeXeXeXeXeXeXeXeXeXeXeXeXeXeXt.l.z.j.k <XeXeXeXeXeXeXeX2Xs.A < 9 b m m J 2 1 4 i T T /.eXeXeXeXeX",
"eXeXeXeXeXeXeXeXeXeXeXeXeXeXeXeXeXeXeXeXeXeXeXeXeXeXeXeXeXeXt.j.l.h.I :XeXeXeXeXeXeXeX7.s.F & 4 r P i.m 5 < L.^ ! /./.qXeXeXeXeX",
"eXeXeXeXeXeXeXeXeXeXeXeXeXeXeXeXeXeXeXeXeXeXeXeXeXeXeXeXeXeXh.f.h.f.I r :X2XeXeXeXeXeXC.s.i.eXQ 7 w n m 7 2 ~.eXeXeXeXeXeXeXeXeX",
"eXeXeXeXeXeXeXeXeXeXeXeXeXeXeXeXeXeXeXeXeXeXeXeXeXeXeXeXeXeXp.s.s.p.c r 9 ^ ( / #XeXeXC.%X%XeX/.3 7 e y i 6 E qXeXeXeXeXeXeXeXeX",
"eXeXeXeXeXeXeXeXeXeXeXeXeXeXeXeXeXeXeXeXeXeXeXeXeXeXeXeXeXeXG F I L P c 1 , ~ (.eXeXeXeXeXeXeXeX.X5 6 9 F w w  XeXeXeXeXeXeXeXeX",
"eXeXeXeXeXeXeXeXeXeXeXeXeXeXeXeXeXeXeXeXeXeXeXeXeXeXeXeXeXeXM 9 b F m C 3 > eXeXeXeXeXeXeXeXeXeX X4 1 D e e 0 ) eXeXeXeXeXeXeXeX",
"eXeXeXeXeXeXeXeXeXeXeXeXeXeXeXeXeXeX*XQ.{.eXeXeXeXeXeXeXeXeXF g 2 w u n b c - 4XeXeXeXeXeXeXeXeXOXe L.: a.9 , k [.eXeXeXeXeXeXeX",
"eXeXeXeXeXeXeXeXeXeXeXeXeXeXeXeX}.B.j.t.g.{.eXeXeXeXeXeXeXeXI f * 6 u y i Z j ` eXeXeXeXeXeXeXeX:Xy ~.~.4 6 1 m M.eXeXeXeXeXeXeX",
"eXeXeXeXeXeXeXeXeXeXeXeXd.i.A t D p.h.l.z.x.eXeXeXeXeXeXeXqXd.I eXJ., < 9 w , = w.5XeXeXeXeXeXeXrXeXeXeX3 3 eX#XM.eXeXeXeXeXeXeX",
"eXeXeXeXeXeXeXeXeXeXeXeXp.N 9 9 s.a.h.j.l.r.eXeXeXeXeXeXeXeX7.7.eXeXE.q * 2 3  XY oXeXeXeXeXeXqXeXeXeXeXt & eXeX[.eXeXeXeXeXeXeX",
"eXeXeXeXeXeXeXeXeXeXeXeXeX~.6 t F s.d.h.n.yXeXeXeXeXeXeXeXeXeXeXeXeXqX/ ! eX= * eXeXeXqXeXeX5XoXoXOXOXf q (.eXeXeXeXeXeXeXeXeXeX",
"eXeXeXeXeXeXeXeXeXeXeXeXeX~ b m Z i.D V f 4XeXeXeXeXeXeXeXeXeXeXeXeXeX+X^.eXE.0 M./ M./.eXeXc.U P G C m ! eXeXeXeXeXeXeXeXeXeXeX",
"eXeXeXeXeXeX5X4XeXeXeXeX* 5 m U b 9 z P.eXeXeXeXeXeXeXeXeXeXeXeXeXeXeXeXeXeX XC Z J P a.$Xg.I p.J G I C ! qXeXeXeXeXeXeXeXeXeXeX",
"eXeXeXeXeXeX;Xc.-XeX(./ N 9 n G 2 1 ) wXeXeXeXeXeXeXeXeXeXeXeXeXeXeXeXeXeX<Xj J J J i.a.9XM.p.I i.Z a.G v.(.eXeXeXeXeXeXeXeXeXeX",
"eXeXeXeXA.p.i.i.P OXeX<X:X6 n 7 ; ; ( eXeXeX9X;Xz.l.[.eXeXeXeXeXeXeXeXeXeXeX@XJ P P D i.>XV.p.F D F F G T (.eXeXeXeXeXeXeXeXeXeX",
"eXeXeX$Xd.i.F G J k eXeXg 6 7 3 E.) M.eXeX{.m.l.z.l.G.tXeXeXeXeXeXeXeXeXeXeX4XOXoXc.D i.%Xr.I D K i.K G Y (.eXeXeXeXeXeXeXeXeXeX",
"eXeXeX-X7.r.U F U m e 3 1 ; n :XeXeXP.eX8Xb.l.l.l.l.d.V eXeXeXeXeXeXeXeXeXeXeXeXeXZ.k p.eXN.f.P y.>XeXeXeXeXeXeXeXeXeXeXeXeXeXeX",
"eXeXeXeX>X5XS.a.J ` K.K.J._ _ 6XeXeXeXeX,Xh.h.j.j.h.f.B eXeXeXeXeXeXeXeXeXeXeXeXeX[.&XA.eXN.c.w.B.eXeXeXeXeXeXeXeXeXeXeXeXeXeXeX",
"eXeXeXeXeXeXeX@XM./.eXeXeX%XeXeXeXeXeXeXp.s.d.f.f.f.s.c eXeXeXeXeXeXeXeXeXeXeXeXeXeXeXeXeX-Xs.%X$XeXeXeXeXeXeXeXeXeXeXeXeXeXeXeX",
"eXeXeXeXeXeXeXeXeXeXeXeXeXeXeXeXeXeXeXeXF d.j.s.d.p.N t eXeXeXeXeXeXeXeXeXeXeXeXeXeXeXeXeXeX%X5XqXeXeXeXeXeXeXeXeXeXeXeXeXeXeXeX",
"eXeXeXeXeXeXeXeXeXeXeXeXeXeXeXeXeXeXwX) t F D i.I D c r /.eXeXeXeXeXeXeXeXeXeXeXeXeXeXeXeXeXeXeXeXeXeXeXeXeXeXeXeXeXeXeXeXeXeXeX",
"eXeXeXeXeXeXeXeXeXeXeXeXeXeXeXeXeXeX/.z 8 v I D B B v 8 R (.eXeXeXeXeXeXeXeXeXeXeXeXeXeXeXeXeXeXeXeXeXeXeXeXeXeXeXeXeXeXeXeXeXeX",
"eXeXeXeXeXeXqXeX'.'. .| % @ @ @ + o d s 2 5 V p.Z H 5 9 9 v m ` eXeXeXeXeXeXeXeXeXeXeXeXeXeXeXeXeXeXeXeXeXeXeXeXeXeXeXeXeXeXeXeX",
"eXeXeXeXeXeX6X5.o.0. . .% @ o.+ o o X o p : M i m H 5 1 E 9 m C @XeXeXeXeXeXeXeXeXeXeXeXeXeXeXeXeXeXeXeXeXeXeXeXeXeXeXeXeXeXeXeX",
"eXeXeXeXeX_.....o.o. .| [ % [ X X + o [  .| x w i C 9 8 ~ eXP.eXeXeXeXeXeXeXeXeXeXeXeXeXeXeXeXeXeXeXeXeXeXeXeXeXeXeXeXeXeXeXeXeX",
"eXeXeXeXeX<.....o. . .| [ o.|     [ o @ | { h 9 n G Z 2 W eXeXeXeXeXeXeXeXeXeXeXeXeXeXeXeXeXeXeXeXeXeXeXeXeXeXeXeXeXeXeXeXeXeXeX",
"eXeXeXeX`.[ ..O. . .| { [ { [ |   . @ [ { { { s N c L 7 4 K.eXeXeXeXeXrX*X7XeXeXeXeXeXeX6X'.0.| $ @ X + W.3XeXeXeXeXeXeXeXeXeXeX",
"eXeXeXeX`.[ [ @ [ [ % % $ % [ X @ % % [ |  . .s 8 N 9 H b f eXeXeXeXqXuXl.F.eXeXeXeXeX3X-.o. .| @ X X X $ =.eXeXeXeXeXeXeXeXeXeX",
"eXeXeXeX_.} [ [ $ + @ X  .. X X . + |  .+.| O.d : : a a 3 C ^.eXeXeX4Xc.s.B eXeXeXeXqX<. .| | ..@.%  .X % | 2.eXeXeXeXeXeXeXeXeX",
"eXeXeXeX3X=.[ @ % % % @ + X @ @ o + % [ @.O.X.$ $ $ + o p l :.eXeXeX_ z J y eXeXeXeXqX;...@ [ @ % X . $ | o.2.eXeXeXeXeXeXeXeXeX",
"eXeXeXeXeXeX*.[ [ [ { @ @ + o + + $ | o.o.o.| [ [ | O o o o o @ 1XeXB.~ u 2 ! /.eXeXqXU.[ [ % o + X + $  .O.U.eXeXeXeXeXeXeXeXeX",
"eXeXeXeXeXeX6X`... ...[ @ + @  .@ @  .o.o. .| [ $ @.X X o  .+ [ X.).[.J.6 u eXeXeXeXeXeXI.[ [ % + X @ % { |.eXeXeXeXeXeXeXeXeXeX",
"eXeXeXeXeXeXeXeXeXU.<.<.O X + [ @ { { | o. . .{ $  .  + | + @ $ [ [ ).^.XX( / eXeXeXeXeXeXeX3.1.>.$.>._.eXeXeXeXeXeXeXeXeXeXeXeX",
"eXeXeXeXeXeXeXeXeXeXeXeXR.R.R.R.[ [ [ ..| | | [ O X   +   + $ { | ..,.eX X X[.eXeXeXeXeXeXeXeXeXqXeXeXeXeXeXeXeXeXeXeXeXeXeXeXeX",
"eXeXeXeXeXeXeXeXeXeXeXeXeXeXeXeX[ @ @ @ @ [ [ + o | @ { @ 0.0.+. .o.2.eXZ Z 8.eXeXeXeXeXeXeXeXeXeXeXeXeXeXeXeXeXeXeXeXqXeXeXeXeX",
"eXeXeXeXeXeXeXeXeXeXeXeXeXeXeXeX[ @ [ [ @ + o o X X     X [ | o. .o.2.eXS.J v.[.eXeXeXeXeXeXeXeXeXeXeXeXeX2X2.1.>.>.$.>._.eXeXeX",
"eXeXeXeXeXeXeXeXeXeXeXeXeXeXeXeX`.{ [ [ ..[ O.+ o X   X @ @ | | O.+.eXeX[.y.-XeXeXeXeXeXeXeXeXeXeXeXeXeX|.o.O.O.$ X X + % |.2XeX",
"eXeXeXeXeXeXeXeXeXeXeXeXeXeXeXeX6X=.[ [ | ..[ @ O X + o @ [ ..0.O.=XeXeXeX[.eXeXeXeXeXeXeXeXeXeXeXeXeXY.% | o.{ @ X  .X @  .I.eX",
"eXeXeXeXeXeXeXeX'.].o.{ @ o o &.).eX0Xq.[ +.[ @ + o { [ % % ] <.eXeXeXeXeXeXeXeXeXeXeXeXeXeXeXeXeXeXeX>.@ { % @ [ q.  + {  .6.eX",
"eXeXeXeXeXeXeXY.o.o.o.| O X o o ' `.eXN.y.9.[ @ +   @ + ] Y.).eXeXeXeXeXeXeXeXeXeXeXeXeXeXeXeXeXeXeXeX1.[ @ o.+ o X X @ {  .6.eX",
"eXeXeXeXeXeX`.[ o.+.o.{ @   o @ [ { 0X$Xs.w.N.eXeXeXeXeXeXeXeXeXeXeXeXeXeXeXeXeXeXeXeXeXeXeXeXeXeXeXeXeX<.X.% @ + o + $ } -.eXeX",
"eXeXeXeXeXeX`.$ | | ..@ o   @ ..|  .6.eXD.&X[.eXeXeXeXeXeXeXeXeXeXeXeXeXeXeXeXeXeXeXeXeXeXeXeXeXeXeXeXeXqX'.I.[ O o $ %.`.2XeXeX",
"eXeXeXeXeXeX_.' [ @ [ + X X + [  .X.eXeXeXeXeXeXeXeXeXeXeXeXeXeXeXeXeXeXeXeXeXeXeXeXeXeXeXeXeXeXeXeXeXeXeXeXeXeXeXeXeXeXeXeXeXeX",
"eXeXeXeXeXeXeX).{ { @ @ + + + [ =.).eXeXeXeXeXeXeXeXeXeXeXeXeXeXeXeXeXeXeXeXeXeXeXeXeXeXeXeXeXeXeXeXeXeXeXeXeXeXeXeXeXeXeXeXeXeX",
"eXeXeXeXeXeXeXeXeX_.,.>.$.6.<._.eXeXeXeXeXeXeXeXeXeXeXeXeXeXeXeXeXeXeXeXeXeXeXeXeXeXeXeXeXeXeXeXeXeXeXeXeXeXeXeXeXeXeXeXeXeXeXeX",
"eXeXeXeXeXeXeXeXeXeXeXeXeXeXeXeXeXeXeXeXeXeXeXeXeXeXeXeXeXeXeXeXeXeXeXeXeXeXeXeXeXeXeXeXeXeXeXeXeXeXeXeXeXeXeXeXeXeXeXeXeXeXeXeX"
};
