/* XPM */
static char *hh[] = {
/* columns rows colors chars-per-pixel */
"64 64 140 2 ",
"   c #3B6E9B",
".  c #1F71A4",
"X  c #1F72A5",
"o  c #1F73A5",
"O  c #1E73A6",
"+  c #1E74A6",
"@  c #1E74A7",
"#  c #1D75A8",
"$  c #1D76A9",
"%  c #1D76AA",
"&  c #1C77AA",
"*  c #1B7AAD",
"=  c #1B7AAE",
"-  c #1B7BAE",
";  c #1A7BAF",
":  c #1C78AC",
">  c #1C79AC",
",  c #1C79AD",
"<  c #197DB1",
"1  c #1A7CB0",
"2  c #1A7DB0",
"3  c #197EB2",
"4  c #197EB3",
"5  c #216EA0",
"6  c #216FA0",
"7  c #216EA1",
"8  c #216FA1",
"9  c #226FA0",
"0  c #2370A1",
"q  c #2070A2",
"w  c #2070A3",
"e  c #2071A3",
"r  c #2671A2",
"t  c #2873A3",
"y  c #2B75A5",
"u  c #2F78A6",
"i  c #3179A7",
"p  c #3D7BA6",
"a  c #337BA8",
"s  c #627096",
"d  c #637097",
"f  c #687095",
"g  c #747F9D",
"h  c #1781B6",
"j  c #1782B7",
"k  c #1880B4",
"l  c #1880B5",
"z  c #1881B5",
"x  c #1683B8",
"c  c #1684B9",
"v  c #1585BB",
"b  c #1586BB",
"n  c #1586BC",
"m  c #1487BD",
"M  c #1389BF",
"N  c #138ABF",
"B  c #1488BD",
"V  c #1488BE",
"C  c #4386B0",
"Z  c #4486B0",
"A  c #4687B1",
"S  c #4A8AB2",
"D  c #4F8EB5",
"F  c #528FB6",
"G  c #5E94B7",
"H  c #658AAD",
"J  c #6A8BAA",
"K  c #7D87A4",
"L  c #6E94B5",
"P  c #609ABC",
"I  c #639CBE",
"U  c #7192B0",
"Y  c #138AC0",
"T  c #128CC2",
"R  c #128CC3",
"E  c #118DC4",
"W  c #108EC5",
"Q  c #108FC5",
"!  c #108FC6",
"~  c #0F91C7",
"^  c #0F91C8",
"/  c #0F92C8",
"(  c #0F92C9",
")  c #0E94CB",
"_  c #0D94CC",
"`  c #0E95CC",
"'  c #0C97CE",
"]  c #0B98D0",
"[  c #0B98D1",
"{  c #0B99D1",
"}  c #0B9AD2",
"|  c #0A9BD3",
" . c #099DD5",
".. c #0A9CD4",
"X. c #0A9CD5",
"o. c #099DD6",
"O. c #089ED6",
"+. c #099ED7",
"@. c #089FD7",
"#. c #089FD8",
"$. c #07A1DA",
"%. c #06A2DC",
"&. c #06A3DC",
"*. c #06A3DD",
"=. c #06A4DD",
"-. c #05A4DE",
";. c #05A5DF",
":. c #05A6DF",
">. c #08A0D9",
",. c #04A6E0",
"<. c #05A6E0",
"1. c #04A7E0",
"2. c #04A7E1",
"3. c #03A8E2",
"4. c #04A8E1",
"5. c #03A9E4",
"6. c #02AAE4",
"7. c #03AAE4",
"8. c #02AAE5",
"9. c #02ABE5",
"0. c #02ABE6",
"q. c #01ACE7",
"w. c #02ACE6",
"e. c #01ADE8",
"r. c #00AEE8",
"t. c #01AEE8",
"y. c #00AEE9",
"u. c #00AFE9",
"i. c #00AFEA",
"p. c #69A0C1",
"a. c #70A4C4",
"s. c #73A7C5",
"d. c #7AA8C5",
"f. c #7FADCA",
"g. c #7FAFCA",
"h. c #92ADC6",
"j. c #A8CBDD",
"k. c #ABCBDD",
"l. c #AECFE0",
"z. c #EBFAFC",
/* pixels */
"u.u.u.u.i.i.i.i.i.i.i.i.i.i.i.i.i.i.i.i.i.i.i.i.i.i.i.i.i.i.i.i.i.i.i.i.i.i.i.i.i.i.i.i.i.i.i.i.i.i.i.i.i.i.i.i.i.i.i.i.i.i.i.i.",
"u.u.i.u.i.i.i.i.i.i.i.i.i.i.i.i.i.i.i.i.i.i.i.i.i.i.i.i.i.i.i.i.i.i.i.i.i.i.i.i.i.i.i.i.i.i.i.i.i.i.i.i.i.i.i.i.i.i.i.i.i.i.i.i.",
"u.i.i.i.i.i.i.i.i.i.i.i.i.i.i.i.i.i.i.i.i.i.i.i.i.i.i.i.i.i.i.i.i.i.i.i.i.i.i.i.i.i.i.i.i.i.i.i.i.i.i.i.i.i.i.i.i.i.i.i.i.i.i.i.",
"u.i.i.i.i.i.i.i.i.i.i.i.i.i.i.i.i.i.i.i.i.i.i.i.i.i.i.i.i.i.i.i.i.i.i.i.i.i.i.i.i.i.i.i.i.i.i.i.i.i.i.i.i.i.i.i.i.i.i.i.i.i.i.i.",
"u.i.i.i.i.i.i.i.i.i.i.i.i.i.i.i.i.i.i.i.i.i.i.i.i.i.i.i.i.i.i.i.i.i.i.i.i.i.i.i.i.i.i.i.i.i.i.i.i.i.i.i.i.i.i.i.i.i.i.i.i.i.i.i.",
"u.i.i.i.i.i.i.i.i.i.i.i.i.i.i.i.i.i.i.i.i.i.i.i.i.i.i.i.i.i.i.i.i.i.i.i.i.i.i.i.i.i.i.i.i.i.i.i.i.i.i.i.i.i.i.i.i.i.i.i.i.i.i.i.",
"u.i.i.i.i.i.i.i.i.i.i.i.i.i.i.i.i.i.i.i.i.i.i.i.i.i.i.i.i.i.i.i.i.i.i.i.i.i.i.i.i.i.i.i.i.i.i.i.i.i.i.i.i.i.i.i.i.i.i.i.i.i.i.i.",
"u.i.i.i.i.i.i.i.i.i.i.i.i.i.i.i.i.i.i.i.i.i.i.i.i.i.i.i.i.i.i.i.i.i.i.i.i.i.i.i.i.i.i.i.i.i.i.i.i.i.i.i.i.i.i.i.i.i.i.i.i.i.i.i.",
"u.i.i.i.i.i.i.i.i.i.i.i.i.i.i.i.i.i.i.i.i.i.i.i.i.i.i.i.i.i.u.u.i.i.i.i.i.i.i.i.i.i.i.i.i.i.i.i.i.i.i.i.i.i.i.i.i.i.i.i.i.i.i.i.",
"u.i.i.i.i.i.i.i.i.i.i.i.i.i.i.i.i.i.i.i.i.i.i.i.i.i.i.i.i.i.u.q.i.i.i.i.i.i.i.i.i.i.i.i.i.i.i.i.i.i.i.i.i.i.i.i.i.i.i.i.i.i.i.i.",
"u.i.i.i.i.i.i.i.i.i.i.i.i.i.i.i.i.i.i.i.i.i.i.i.i.i.i.i.,.= 5 5 : o.i.i.i.i.i.i.i.i.i.i.i.i.i.i.i.i.i.i.i.i.i.i.i.i.i.i.i.i.i.i.",
"u.i.i.i.i.i.i.i.i.i.i.i.i.i.i.i.i.i.i.i.i.i.i.i.i.i.i.5.< 5 5 5 5 % ,.i.i.i.i.i.i.i.i.i.i.i.i.i.i.i.i.i.i.i.i.i.i.i.i.i.i.i.i.i.",
"u.i.i.i.i.i.i.i.i.i.i.i.i.i.i.i.i.i.i.i.i.i.i.i.i.i.q.4 5 5 5 5 5 5 1 2.i.i.i.i.i.i.i.i.i.i.i.i.i.i.i.i.i.i.i.i.i.i.i.i.i.i.i.i.",
"u.i.i.i.i.i.i.i.i.i.i.i.i.i.i.i.i.i.i.i.i.i.i.i.i.i.#.@ 5 5 5 5 5 5 8 [ i.i.i.i.i.i.i.i.i.i.i.i.i.i.i.i.i.i.i.i.i.i.i.i.i.i.i.i.",
"u.i.i.i.i.i.i.i.i.i.i.i.i.i.i.i.i.i.i.i.i.i.i.i.i.i.Y 5 7 5 7 7 5 5 5 , u.i.i.i.i.i.i.i.i.i.i.i.i.i.i.i.i.i.i.i.i.i.i.i.i.i.i.i.",
"u.i.i.i.i.i.i.i.i.i.i.i.i.i.i.i.i.i.i.i.i.i.i.i.i.i.@ 5 7 7 7 7 5 5 5 8 5.i.i.i.i.i.i.i.i.i.i.i.i.i.i.i.i.i.i.i.i.i.i.i.i.i.i.i.",
"u.i.i.i.i.i.i.i.i.i.i.i.i.i.i.i.i.i.i.i.i.i.i.i.i.i.7 7 5 5 8 7 5 5 5 5 ( i.i.i.i.i.i.i.i.i.i.i.i.i.i.i.i.i.i.i.i.i.i.i.i.i.i.i.",
"u.i.i.i.i.i.i.i.i.i.i.i.i.i.i.i.i.i.i.i.i.i.i.i.u.} 7 7 5 5 8 w 5 5 5 5 v i.i.i.i.i.i.i.i.i.i.i.i.i.i.i.i.i.i.i.i.i.i.i.i.i.i.i.",
"u.i.i.i.i.i.i.i.i.i.i.i.i.i.i.i.i.i.i.i.i.i.i.i.u.~ 7 7 5 5 9 t 5 5 5 5 4 5.i.i.i.i.i.i.i.i.i.i.i.i.i.i.i.i.i.i.i.i.i.i.i.i.i.i.",
"u.i.i.i.i.i.i.i.i.i.i.i.i.i.i.i.i.i.i.i.i.i.i.i.u.v 7 7 5 5 F h.i 5 5 5 : *.i.i.i.i.i.i.i.i.i.i.i.i.i.i.i.i.i.i.i.i.i.i.i.i.i.i.",
"u.i.i.i.i.i.i.i.i.i.i.i.i.i.i.i.i.i.i.i.i.i.i.i.q.4 7 7 7 9 h.s a.5 5 5 : #.i.i.i.i.i.i.i.i.i.i.i.i.i.i.i.i.i.i.i.i.i.i.i.i.i.i.",
"u.i.i.i.i.i.i.i.i.i.i.i.i.i.i.i.i.i.i.i.i.i.i.i.u.l 7 7 7 u L f P 5 5 5 : *.i.i.i.i.i.i.i.i.i.i.i.i.i.i.i.i.i.i.i.i.i.i.i.i.i.i.",
"u.i.i.i.i.i.i.i.i.i.i.i.i.i.i.i.i.i.i.i.i.i.i.i.q.l 5 5 7 a K f U 7 5 5 % #.i.i.i.i.i.i.i.i.i.i.i.i.i.i.i.i.i.i.i.i.i.i.i.i.i.i.",
"u.i.i.i.i.i.i.i.i.i.i.i.i.i.i.i.i.i.i.i.i.i.i.i.q.4 5 5 5 a g f J 5 5 5 : ,.i.i.i.i.i.i.i.i.i.i.i.i.i.i.i.i.i.i.i.i.i.i.i.i.i.i.",
"u.i.i.i.i.i.i.i.i.i.i.i.i.i.i.i.i.i.i.i.u.u.q.#.x 7 7 7 5 a g f J 9 5 5 5 5 ~ ,.i.i.i.i.i.i.i.i.i.i.i.i.i.i.i.i.i.i.i.i.i.i.i.i.",
"u.i.i.i.i.i.i.i.i.i.i.i.i.i.i.i.i.i.i.i.u.0.^ @ 7 7 7 7 5 a g f J 9 5 5 5 5 7 : #.q.i.i.i.i.i.i.i.i.i.i.i.i.i.i.i.i.i.i.i.i.i.i.",
"u.i.i.i.i.i.i.i.i.i.i.i.i.i.i.i.i.i.i.i.2.< 7 7 5 5 5 5 5 a g f J 9 5 5 5 5 7 7 7 E i.i.i.i.i.i.i.i.i.i.i.i.i.i.i.i.i.i.i.i.i.i.",
"u.i.i.i.i.i.i.i.i.i.i.i.i.i.i.i.i.i.i.i.1 7 7 7 5 5 5 5 5 a g f J 9 5 5 5 5 5 7 7 8 ) i.i.i.i.i.i.i.i.i.i.i.i.i.i.i.i.i.i.i.i.i.",
"u.i.i.i.i.i.i.i.i.i.i.i.i.i.i.i.i.i.u.} 7 7 7 O O 7 7 5 5 a H s P 9 5 5 5 e : e 7 7 1 2.i.i.i.i.i.i.i.i.i.i.i.i.i.i.i.i.i.i.i.i.",
"u.i.i.i.i.i.i.i.i.i.i.i.i.i.i.i.i.i.u.V 7 7 ~ #.#.v 7 7 5 t p   I 7 5 5 e ( #.} 4 7 8 o.i.i.i.i.i.i.i.i.i.i.i.i.i.i.i.i.i.i.i.i.",
"u.i.i.i.i.i.i.i.i.i.i.i.i.i.i.i.i.i.i.) Y 2.i.i.u.^ 7 7 5 5 k.d.d.5 7 7 : &.i.i.i.#.x #.i.i.i.i.i.i.i.i.i.i.i.i.i.i.i.i.i.i.i.i.",
"u.i.i.i.i.i.i.i.i.i.i.i.i.i.i.i.i.i.i.i.u.u.i.i.u.^ 7 7 5 5 l.k.s.5 7 7 1 3.i.i.i.i.i.i.i.i.i.i.i.i.i.i.i.i.i.i.i.i.i.i.i.i.i.i.",
"i.i.i.i.i.i.i.i.i.i.i.i.i.i.i.i.i.i.i.i.i.i.i.i.u.u.5 7 8 8 P z.F 5 5 5 4 i.i.i.i.i.i.i.i.i.i.i.i.i.i.i.i.i.i.i.i.i.i.i.i.i.i.i.",
"i.i.i.i.i.i.i.i.i.i.i.i.i.i.i.i.i.i.i.i.i.i.i.i.u.u.5 7 7 e C h.5 5 5 5 x i.i.i.i.i.i.i.i.i.i.i.i.i.i.i.i.i.i.i.i.i.i.i.i.i.i.i.",
"i.i.i.i.i.i.i.i.i.i.i.i.i.i.i.i.i.i.i.i.i.i.i.i.u.u.o 7 7 7 u Z 5 5 5 5 x i.i.i.i.i.i.i.i.i.i.i.i.i.i.i.i.i.i.i.i.i.i.i.i.i.i.i.",
"i.i.i.i.i.i.i.i.i.i.i.i.i.i.i.i.i.i.i.i.i.i.i.i.i.u.n 5 7 7 Z S 5 5 5 5 x i.i.i.i.i.i.i.i.i.i.i.i.i.i.i.i.i.i.i.i.i.i.i.i.i.i.i.",
"i.i.i.i.i.i.i.i.i.i.i.i.i.i.i.i.i.i.i.i.i.i.i.i.i.i.E 5 5 5 5 F 5 5 5 5 #.i.i.i.i.i.i.i.i.i.i.i.i.i.i.i.i.i.i.i.i.i.i.i.i.i.i.i.",
"i.i.i.i.i.i.i.i.i.i.i.i.i.i.i.i.i.i.i.i.i.i.i.i.i.i.[ w 5 5 5 5 5 5 5 5 5.u.i.i.i.i.i.i.i.i.i.i.i.i.i.i.i.i.i.i.i.i.i.i.i.i.i.i.",
"u.i.i.i.i.i.i.i.i.i.i.i.i.i.i.i.i.i.i.i.i.i.i.i.i.i.o.w 5 5 5 5 5 5 5 5 3.i.i.i.i.i.i.i.i.i.i.i.i.i.i.i.i.i.i.i.i.i.i.i.i.i.i.i.",
"u.i.i.i.i.i.i.i.i.i.i.i.i.i.i.i.i.i.i.i.i.i.i.i.i.i.#.: 5 5 5 5 5 5 7 7 3.i.i.i.i.i.i.i.i.i.i.i.i.i.i.i.i.i.i.i.i.i.i.i.i.i.i.i.",
"u.i.i.i.i.i.i.i.i.i.i.i.i.i.i.i.i.i.i.i.i.i.i.i.i.i.i.v 7 7 5 5 5 5 5 8 0.u.i.i.i.i.i.i.i.i.i.i.i.i.i.i.i.i.i.i.i.i.i.i.i.i.i.i.",
"u.i.i.i.i.i.i.i.i.i.i.i.i.i.i.i.i.i.i.i.i.i.i.i.i.i.i.( 7 7 5 5 5 5 7 : q.i.i.i.i.i.i.i.i.i.i.i.i.i.i.i.i.i.i.i.i.i.i.i.i.i.i.i.",
"u.i.i.i.i.i.i.i.i.i.i.i.i.i.i.i.i.i.i.i.i.i.i.i.i.i.i.#.7 7 7 5 7 7 7 , i.i.i.i.i.i.i.i.i.i.i.i.i.i.i.i.i.i.i.i.i.i.i.i.i.i.i.i.",
"u.i.i.i.i.i.i.i.i.i.i.i.i.i.i.i.i.i.i.i.i.i.i.i.i.i.i.5.7 7 7 5 7 7 7 , i.i.i.i.i.i.i.i.i.i.i.i.i.i.i.i.i.i.i.i.i.i.i.i.i.i.i.i.",
"u.i.i.i.i.i.i.i.i.i.i.i.i.i.i.i.i.i.i.i.i.i.i.i.i.i.i.i.1 5 5 5 7 7 5 , u.u.i.i.i.i.i.i.i.i.i.i.i.i.i.i.i.i.i.i.i.i.i.i.i.i.i.i.",
"u.i.i.i.i.i.i.i.i.i.i.i.i.i.i.i.i.i.i.i.i.i.i.i.i.i.i.i.' 5 5 5 5 5 7 W i.u.i.i.i.i.i.i.i.i.i.i.i.i.i.i.i.i.i.i.i.i.i.i.i.i.i.i.",
"u.i.i.i.i.i.i.i.i.i.i.i.i.i.i.i.i.i.i.i.i.i.i.i.i.i.i.u.~ 7 5 5 5 5 5 ) i.u.i.i.i.i.i.i.i.i.i.i.i.i.i.i.i.i.i.i.i.i.i.i.i.i.i.i.",
"u.i.i.i.i.i.i.i.i.i.i.i.i.i.i.i.i.i.i.i.i.i.i.i.i.i.i.q.e 7 5 5 5 5 5 : u.u.i.i.i.i.i.i.i.i.i.i.i.i.i.i.i.i.i.i.i.i.i.i.i.i.i.i.",
"u.i.i.i.i.i.i.i.i.i.i.i.i.i.i.i.i.i.i.i.i.i.i.i.i.i.i.( 7 5 5 5 7 7 7 7 X.i.i.i.i.i.i.i.i.i.i.i.i.i.i.i.i.i.i.i.i.i.i.i.i.i.i.i.",
"u.i.i.i.i.i.i.i.i.i.i.i.i.i.i.i.i.i.i.i.i.i.i.i.i.i.u.v % : 5 5 7 7 7 7 x u.i.i.i.i.i.i.i.i.i.i.i.i.i.i.i.i.i.i.i.i.i.i.i.i.i.i.",
"u.i.i.i.i.i.i.i.i.i.i.i.i.i.i.i.i.i.i.i.i.i.i.i.i.i.*.W *.q.e 7 7 5 v *.E 2.i.i.i.i.i.i.i.i.i.i.i.i.i.i.i.i.i.i.i.i.i.i.i.i.i.i.",
"u.i.i.i.i.i.i.i.i.i.i.i.i.i.i.i.i.i.i.i.i.i.i.i.i.i.u.u.i.i.1 7 5 5 Y i.u.u.i.i.i.i.i.i.i.i.i.i.i.i.i.i.i.i.i.i.i.i.i.i.i.i.i.i.",
"u.i.i.i.i.i.i.i.i.i.i.i.i.i.i.i.i.i.i.i.i.i.i.i.i.i.i.i.i.i.' 7 5 5 ( i.i.i.i.i.i.i.i.i.i.i.i.i.i.i.i.i.i.i.i.i.i.i.i.i.i.i.i.i.",
"u.i.i.i.i.i.i.i.i.i.i.i.i.i.i.i.i.i.i.i.i.i.i.i.i.i.i.i.i.i.,.: 5 5 u.i.i.i.i.i.i.i.i.i.i.i.i.i.i.i.i.i.i.i.i.i.i.i.i.i.i.i.i.i.",
"u.i.i.i.i.i.i.i.i.i.i.i.i.i.i.i.i.i.i.i.i.i.i.i.i.i.i.i.i.i.5.4 7 % u.i.i.i.i.i.i.i.i.i.i.i.i.i.i.i.i.i.i.i.i.i.i.i.i.i.i.i.i.i.",
"u.i.i.i.i.i.i.i.i.i.i.i.i.i.i.i.i.i.i.i.i.i.i.i.i.i.i.i.i.i.u.Y 7 v i.i.i.i.i.i.i.i.i.i.i.i.i.i.i.i.i.i.i.i.i.i.i.i.i.i.i.i.i.i.",
"u.i.i.i.i.i.i.i.i.i.i.i.i.i.i.i.i.i.i.i.i.i.i.i.i.i.i.i.i.i.i.' 7 1 i.i.i.i.i.i.i.i.i.i.i.i.i.i.i.i.i.i.i.i.i.i.i.i.i.i.i.i.i.i.",
"u.i.i.i.i.i.i.i.i.i.i.i.i.i.i.i.i.i.i.i.i.i.i.i.i.i.i.i.i.i.i.i.7 7 i.i.i.i.i.i.i.i.i.i.i.i.i.i.i.i.i.i.i.i.i.i.i.i.i.i.i.i.i.i.",
"u.i.i.i.i.i.i.i.i.i.i.i.i.i.i.i.i.i.i.i.i.i.i.i.i.i.i.i.i.i.i.i.7 5 *.i.i.i.i.i.i.i.i.i.i.i.i.i.i.i.i.i.i.i.i.i.i.i.i.i.i.i.i.i.",
"u.i.i.i.i.i.i.i.i.i.i.i.i.i.i.i.i.i.i.i.i.i.i.i.i.i.i.i.i.i.i.i.: 7 v i.i.i.i.i.i.i.i.i.i.i.i.i.i.i.i.i.i.i.i.i.i.i.i.i.i.i.i.i.",
"u.i.i.i.i.i.i.i.i.i.i.i.i.i.i.i.i.i.i.i.i.i.i.i.i.i.i.i.i.i.i.i.v : Y i.i.i.i.i.i.i.i.i.i.i.i.i.i.i.i.i.i.i.i.i.i.i.i.i.i.i.i.i.",
"u.i.i.i.i.i.i.i.i.i.i.i.i.i.i.i.i.i.i.i.i.i.i.i.i.i.i.i.i.i.i.i.( v ) i.i.i.i.i.i.i.i.i.i.i.i.i.i.i.i.i.i.i.i.i.i.i.i.i.i.i.i.i.",
"u.i.i.i.i.i.i.i.i.i.i.i.i.i.i.i.i.i.i.i.i.i.i.i.i.i.i.i.i.i.i.u.*.v i.i.i.i.i.i.i.i.i.i.i.i.i.i.i.i.i.i.i.i.i.i.i.i.i.i.i.i.i.i.",
"u.i.i.i.i.i.i.i.i.i.i.i.i.i.i.i.i.i.i.i.i.i.i.i.i.i.i.i.i.i.i.u.u.^ i.i.i.i.i.i.i.i.i.i.i.i.i.i.i.i.i.i.i.i.i.i.i.i.i.i.i.i.i.i."
};
