/* XPM */
static char *sharkk[] = {
/* columns rows colors chars-per-pixel */
"64 64 174 2 ",
"   c #36332D",
".  c #38352F",
"X  c #2E333B",
"o  c #363533",
"O  c #393631",
"+  c #353935",
"@  c #3C3A35",
"#  c #343B3B",
"$  c #3A3A38",
"%  c #32353A",
"&  c #413E39",
"*  c #403D37",
"=  c #44413D",
"-  c #1C335C",
";  c #2A3445",
":  c #273348",
">  c #323842",
",  c #203253",
"<  c #323D50",
"1  c #183361",
"2  c #13326A",
"3  c #163264",
"4  c #0E3272",
"5  c #123574",
"6  c #11377A",
"7  c #12397D",
"8  c #344344",
"9  c #374749",
"0  c #2A4F58",
"q  c #2B4C54",
"w  c #2C5059",
"e  c #39545A",
"r  c #2E464A",
"t  c #2C4B61",
"y  c #245D6D",
"u  c #2C5762",
"i  c #345962",
"p  c #2A487C",
"a  c #1F697F",
"s  c #296171",
"d  c #26677B",
"f  c #326675",
"g  c #474541",
"h  c #484642",
"j  c #4C4A45",
"k  c #4D4C48",
"l  c #424F50",
"z  c #595752",
"x  c #5E5B57",
"c  c #575551",
"v  c #615F5B",
"b  c #5F615E",
"n  c #63615C",
"m  c #686662",
"M  c #6A6864",
"N  c #6A6864",
"B  c #706E6A",
"V  c #74736F",
"C  c #777571",
"Z  c #787773",
"A  c #50696F",
"S  c #84837F",
"D  c #163E86",
"F  c #174089",
"G  c #19438B",
"H  c #1A4591",
"J  c #1F4D9E",
"K  c #244580",
"L  c #39568B",
"P  c #2C5294",
"I  c #1C718C",
"U  c #187896",
"Y  c #177998",
"T  c #28758D",
"R  c #27768F",
"E  c #2A6A85",
"W  c #204FA0",
"Q  c #2253A7",
"!  c #2657AC",
"~  c #315BA5",
"^  c #275CB5",
"/  c #285CB6",
"(  c #275FB8",
")  c #157FA1",
"_  c #2962B9",
"`  c #3566BA",
"'  c #3C6BBD",
"]  c #425E91",
"[  c #527781",
"{  c #5A739E",
"}  c #406EBE",
"|  c #436DB4",
" . c #4270BF",
".. c #1F6FC1",
"X. c #1C74C4",
"o. c #1A78C7",
"O. c #197CC7",
"+. c #207CC9",
"@. c #4E79C3",
"#. c #4975C1",
"$. c #537DC4",
"%. c #20809F",
"&. c #1286AB",
"*. c #1483A6",
"=. c #128AB2",
"-. c #0E90BB",
";. c #738081",
":. c #7F92B4",
">. c #1681CD",
",. c #0C94C1",
"<. c #0B9BCB",
"1. c #1196C2",
"2. c #1098C5",
"3. c #128AD3",
"4. c #0D94D9",
"5. c #099CDE",
"6. c #079ED1",
"7. c #2E86CE",
"8. c #06A2D5",
"9. c #08A3D7",
"0. c #20A2DF",
"q. c #02ABE6",
"w. c #00AFEA",
"e. c #04A6E4",
"r. c #38B3E7",
"t. c #5A82C7",
"y. c #5D84C8",
"u. c #6288CA",
"i. c #6A8ECC",
"p. c #6E91CE",
"a. c #7092CE",
"s. c #7D9CD3",
"d. c #6B9BD4",
"f. c #69A1D7",
"g. c #57C6EE",
"h. c #54C9F1",
"j. c #52C7F0",
"k. c #8D8C88",
"l. c #908F8B",
"z. c #93918E",
"x. c #9B9996",
"c. c #A2A19E",
"v. c #A5A4A1",
"b. c #AEADAB",
"n. c #A9A7A5",
"m. c #B2B1AF",
"M. c #B8B7B5",
"N. c #B9B9B7",
"B. c #B9B8B6",
"V. c #C0BFBE",
"C. c #84A3D6",
"Z. c #92ACDA",
"A. c #97B0DC",
"S. c #9DB5DE",
"D. c #ADB9CF",
"F. c #A2B8DF",
"G. c #A4BAE0",
"H. c #ABBFE2",
"J. c #87C9EB",
"K. c #B3C5E5",
"L. c #B7C9E7",
"P. c #B3D1EC",
"I. c #ACE0F5",
"U. c #C4C3C1",
"Y. c #CCCBCA",
"T. c #CAC9C7",
"R. c #D3D2D1",
"E. c #DEDEDD",
"W. c #E5E5E4",
"Q. c #EAEAE9",
"!. c #E8E8E7",
"~. c #F0F0EF",
"^. c #F3F3F2",
"/. c #FFFFFF",
/* pixels */
"w.w.w.w.w.w.w.w.w.w.w.w.w.w.w.w.w.w.w.w.w.w.w.w.w.w.w.w.w.w.w.w.w.w.w.w.w.w.w.w.w.w.w.w.w.w.w.w.w.w.w.w.w.w.w.w.w.w.w.w.w.w.w.w.",
"w.w.w.w.w.w.w.w.w.w.w.w.w.w.w.w.w.w.w.w.w.w.w.w.w.w.w.w.w.w.w.w.w.w.w.w.w.w.w.w.w.w.w.w.w.w.w.q.w.w.w.w.w.w.w.w.w.w.w.w.w.w.w.w.",
"w.w.w.w.w.w.w.w.w.w.w.w.w.w.w.w.w.w.w.w.w.w.w.w.w.w.w.w.w.w.w.w.w.w.w.w.w.w.w.w.w.w.w.w.<.&.&.I O @ * = f 1.w.w.w.w.w.w.w.w.w.w.",
"w.w.w.w.w.w.w.w.w.w.w.w.w.w.w.w.w.w.w.w.w.w.w.w.w.w.w.w.w.w.w.w.w.w.w.w.w.w.w.w.w.w.y y r . . @ = g j T q.w.w.w.w.w.w.w.w.w.w.w.",
"w.w.w.w.w.w.w.w.w.w.w.w.w.w.w.w.w.w.w.w.w.w.w.w.w.w.w.w.w.w.w.w.w.w.w.w.w.w.=.&.j Z j z.= * h h h h %.w.w.w.w.w.w.w.w.w.w.w.w.w.",
"w.w.w.w.w.w.w.w.w.w.w.w.w.w.w.w.w.w.w.w.w.w.w.w.w.w.w.w.w.w.w.w.w.w.w.w.-.y b B.c.C j = h h h h h T w.w.w.w.w.w.w.w.w.w.w.w.w.w.",
"w.w.w.w.w.w.w.w.w.w.w.w.w.w.w.w.w.w.w.w.w.w.w.w.w.w.w.w.w.w.w.w.w.8.Y A k.R.M.x @ = h h h h h h f w.w.w.w.w.w.w.w.w.w.w.w.w.w.w.",
"w.w.w.w.w.w.w.w.w.w.w.w.w.w.w.w.w.w.w.w.w.w.w.w.w.w.w.w.w.w.w.w.&.0 m.E.T.B O & h h h h h h h h 2.w.w.w.w.w.w.w.w.w.w.w.w.w.w.w.",
"w.w.w.w.w.w.w.w.w.w.w.w.w.w.w.w.w.w.w.w.w.w.w.w.w.w.w.w.w.w.&.i x.^.N.n O = h h h h h h g h l 1.w.w.w.w.w.w.w.w.w.w.w.w.w.w.w.w.",
"w.w.w.w.w.w.w.w.w.w.w.w.w.w.w.w.w.w.w.w.w.w.w.w.w.w.w.w.<.y n U.Q.l.. @ g h h h h h h h g g f q.w.w.w.w.w.w.w.w.w.w.w.w.w.w.w.w.",
"w.w.w.w.w.w.w.w.w.w.w.w.w.w.w.w.w.w.w.w.w.w.w.w.w.w.8.&.j U.~.U.  @ h h h h h h h h h h h j w.w.w.w.w.w.w.w.w.w.w.w.w.w.w.w.w.w.",
"w.w.w.w.w.w.w.w.w.w.w.w.w.w.w.w.w.w.w.w.w.w.w.w.w.w.0 Z R./.M @ & = h h h h h h h h h h j R w.w.w.w.w.w.w.w.w.w.w.w.w.w.w.w.w.w.",
"w.w.w.w.w.w.w.w.w.w.w.w.w.w.w.w.w.w.w.w.w.w.w.w.I # n./.m.z @ = h h h h h h h h h h h h e <.w.w.w.w.w.w.w.w.w.w.w.w.w.w.w.w.w.w.",
"w.w.w.w.w.w.w.w.w.w.w.w.w.w.w.w.w.w.w.w.w.w.w.Y x M./.n.O @ g h h h h h h h h h h h h h E w.w.w.w.w.w.w.w.w.w.w.w.w.w.w.w.w.w.w.",
"w.w.w.w.w.w.w.w.w.w.w.w.w.w.w.w.w.w.w.w.w.-.u M /.!.k.. & h h h h h h h h h h h h h h g w.w.w.w.w.w.w.w.w.w.w.w.w.w.w.w.w.w.w.w.",
"w.w.w.w.w.w.w.w.w.w.w.w.w.w.w.w.w.w.w.w.,.9 N Q.R.v O = h h h h h h h h h h h h h h h E w.w.w.w.w.w.w.w.w.w.w.w.w.w.w.w.w.w.w.w.",
"w.w.w.w.w.w.w.w.w.w.w.w.w.w.w.w.w.w.w.1.= Z /.R.  O h h h h h h h h h h h h h h g j j =.w.w.w.w.w.w.w.w.w.w.w.w.w.w.w.w.w.w.w.w.",
"q.w.w.w.w.w.w.w.w.w.w.w.w.w.w.w.w.w.1.e c.^.R.j @ g h h h h h h h h h h h h h h g g i 9.w.w.w.w.w.w.w.w.w.w.w.w.w.w.w.w.w.w.w.w.",
"w.w.w.w.w.w.w.w.w.w.w.w.w.w.w.w.w.,.c N./.R.. & h h h h h h h h h h h h h h h h g h s q.w.w.w.w.w.w.w.w.w.w.w.w.w.w.w.w.w.w.w.w.",
"w.w.w.w.w.w.w.w.w.w.w.w.w.w.w.w.,.8 U./.R.j = h h h h h h h h h h h h h h h h h h g E w.w.w.w.w.w.w.w.w.w.w.w.w.w.w.w.w.w.w.w.w.",
"w.w.w.w.w.w.w.w.w.w.w.w.w.w.w.-.* c./.R.. = h h h h h h h h h h h h h h h h h h h = w.w.w.w.w.w.w.w.w.w.w.w.w.w.w.w.w.w.w.w.w.w.",
"w.w.w.w.w.w.w.w.w.w.w.w.w.w.,.8 C ^.R.j = h h h h h h h h h h h h h h h h h h h g @ w.w.w.w.w.w.w.w.w.w.w.w.w.w.w.w.w.w.w.w.w.w.",
"w.w.w.w.w.w.w.w.w.w.w.w.w.,.. m /.R.O = h h h h h h h h h h h h h h h h h h h h = 8 w.w.w.w.w.w.w.w.w.w.w.w.w.w.w.w.w.w.w.w.w.w.",
"w.w.w.w.w.w.w.w.w.w.w.w.6.q m Q.R.j = h h h h h h h h h h h h h h h h h h h h j = I w.w.w.w.w.w.w.w.w.w.w.w.w.w.w.w.w.w.w.w.w.w.",
"w.w.w.w.w.w.w.w.w.w.w.w.d b /.^.& & g h h h h h h h h h h h h h h h h h h h h h @ &.w.w.w.w.w.w.w.w.w.w.w.w.w.w.w.w.w.w.w.w.w.w.",
"w.w.w.w.w.w.w.w.w.w.w.Y = T./.x.@ g h h h h h h h h h h h h h h h h h h h h h = @ &.w.w.w.w.w.w.w.w.w.w.w.w.w.w.w.w.w.w.w.w.w.w.",
"w.w.w.w.w.w.w.w.w.w.=.+ n./.l.O h h h h h h h h h h h h h h h h h h h h h h h = O &.w.w.w.w.w.w.w.w.w.w.w.w.w.w.w.w.w.w.w.w.w.w.",
"w.w.w.w.w.w.w.w.w.w.w z./.b.O g h h h h h h h h h h h h h h h h h h h h h h j =   &.w.w.w.w.w.w.w.w.w.w.w.w.w.w.w.w.w.w.w.w.w.w.",
"w.w.w.w.w.w.w.w.w.s M !.!.n g h h h h h h h h h h h h h h h h h h h h h h h h & . &.w.w.w.w.w.w.w.w.w.w.w.w.w.w.w.w.w.w.w.w.w.w.",
"w.w.w.w.w.w.w.w.1.9 R./.n @ h h h h h h h h h h h h h h h h h h h h h h h h h @   &.w.w.w.w.w.w.w.w.w.w.w.w.w.w.w.w.w.w.w.w.w.w.",
"w.w.w.w.w.w.w.w.8 M./.c.@ h h h h h h h h h h h h h h h h h h h h h h h h g = @ . &.w.w.w.w.w.w.w.w.w.w.w.w.w.w.w.w.w.w.w.w.w.w.",
"q.w.w.w.w.w.w.Y M Q.R.j h h h h h h h h h h h h h h h h h h h h h h h h h j g O   &.w.w.w.w.w.w.w.w.w.w.w.w.w.w.w.w.w.w.w.w.w.w.",
"w.w.w.w.w.w.8.w E./.z g h h h h h h h h h h h h h h h h h h h h h h h h h h = O   &.w.w.w.w.w.w.w.w.w.w.w.w.w.w.w.w.w.w.w.w.w.w.",
"w.w.w.w.w.w.*.z./.v.@ h h h h h h h h h h h h h h h h h h h h h h h h h h h = O   &.w.w.w.w.w.w.w.w.w.w.w.w.w.w.w.w.w.w.w.w.w.w.",
"w.w.w.w.w.q.k R.W.x h h h h h h h h h h h h h h h h h h h h h h h h h h h g = O   &.w.w.w.w.w.w.w.w.w.w.w.w.w.w.w.w.w.w.w.w.w.w.",
"w.w.w.w.w.I b./.C @ h h h h h h h h h h h h h h h h h h h h h h h h h h h g = O   ) w.w.w.w.w.w.w.w.w.w.w.w.w.w.w.w.w.w.w.w.w.w.",
"w.w.w.w.8.[ /.R.O g h h h h h h h h h h h h h h h h h h h h h h h h h h h h = .   # w.w.w.w.w.w.w.w.w.w.w.w.w.w.w.w.w.w.w.w.w.w.",
"w.w.w.w.&.M./.Z = g h h h h h h h h h h h h h h h h h h h h h h h h h h h h = O     w.w.w.w.w.w.w.w.w.w.w.w.w.w.w.w.w.w.w.w.w.w.",
"w.w.w.w.;./.N.@ h h h h h h h h h h h h h h h h h h h h h h h h h h h h h h = @     q.w.w.w.w.w.w.w.w.w.w.w.w.w.w.w.w.w.w.w.w.w.",
"w.w.w.w.Y./.n & h h h h h h h h h h h h h h h h h h h h h h h h h h h h h h = O     I w.w.w.w.w.w.w.w.w.w.w.w.w.w.w.w.w.w.w.w.w.",
"w.w.w.y /.R.O h h h h h h h h h h h h h h h h h h h h h h h h h h h h h h h g @ O   t 3.4.4.4.4.4.4.5.w.w.w.w.w.w.w.w.w.w.w.w.w.",
"w.w.w.y Z j @ h h h h h h h h h h h h h h h h h h h h h h h h h h h h h h h g & O   % P / / / ` ^ ^ _ X.o.o.3.q.w.w.w.w.w.w.w.w.",
"w.w.=.+ . . h h h h h h h h h h h h h h h h h h h h h h h h h h h h h h h h h g O . . p G.K.` / / u.L.L.s.t.u.` / >.4.e.w.w.w.w.",
"w.w.&..   @ h h h h h h h h h h h h h h h h h h h h h h h h h h h h h h h h h h @ . . > / / / / $.L.Z.} / t.u.Z.C./ / ..3.w.w.w.",
"w.w.I     = h h h h h h h h h h h h h h h h h h h h h h h h h h h h h h h h h h = O     P ^ / / / / / / / ^ A.p.#.G.p.} / / 5.w.",
"w.w.+   . = h h h h h h h h h h h h h h h h h h h h h h h h h h h h h h h h h h = @     < ! / ^ / / / / / / ' p.K.$.p.S./ / X.w.",
"w.w.    @ g h h h h h h h h h h h h h h h h h h h h h h h h h h h h h h h h h h g = O     p Q ^ / / / / / / / / / K./ / #./ / 4.",
"w.w.  . = h h h h h h h h h h h h h h h h h h h h h h h h h h h h h h h h h h h h = O .   - 4 Q / / / / / / / / / L./ / / / _ 4.",
"q.o..   . @ = g g g g g j g h h h h h h h h h h h h h h h h h h h h h h h h g g & $ o X 2 4 5 6 / / / / / / / ^ @.S.' G.^ ( 3.w.",
"w.o.:       O @ = g g j g g h h h h h h h h h h h h h h h h h h h h h g g = & @ O   - 2 4 6 :.H / / / / ^ ^ y.L.@.} S.#./ O.w.w.",
"w.3.H 5 - ; X . . . O @ = = g h g h h h h h h h h h h h h h h h g g = & @ @ o ; , 4 p { L 4 H ! / / L.L.K.G.` i.i.G.( X.4.w.w.w.",
"w.w.O.J 4 4 2 - - X . . O @ @ @ = = = g g g g g g g = = g & & & @ @ O O ; - 1 4 ] D.L { | J ^ ^ / / / / #.K.A.i.' >.4.q.w.w.w.w.",
"w.w.w.3._ _ F F D 6 4 4 3 : ; ; : ; % $ @ @ @ @ @ @ @ # > ; ; ; : 1 4 4 4 7 D G D Q / / / / / #.a.i.t.L.C.X.o.5.w.w.w.w.w.w.w.w.",
"w.w.w.w.q.5.>./ / W ~ J W J J F 4 2 3 1 - - - - - - - 1 2 5 D J Q J J W W Q / / / / / ` K.L.A.$.a.a.3.4.4.e.w.w.w.w.w.w.w.w.w.w.",
"w.w.w.w.q.w.w.w.w.3.+.J.I.P.i.' p.p.a.p.a.a./ / / / / / / / / ' i.a.p.$.' / C.K.L.P.J.7.o.o.4.w.w.w.w.w.w.w.w.w.w.w.w.w.w.w.w.w.",
"w.w.w.w.w.w.w.w.w.w.w.w.q.5.4.0.h.h.h.g.d.a./ / / / / / / / / ' p.f.j.r.0.4.3.4.4.e.w.w.w.w.w.w.w.w.w.w.w.w.w.w.w.w.w.w.w.w.w.w.",
"w.w.w.w.w.w.w.w.w.w.w.w.w.w.w.w.w.w.w.w.w.w.w.w.w.w.w.w.w.w.w.w.w.w.w.w.w.w.w.w.w.w.w.w.w.w.w.w.w.w.w.w.w.w.w.w.w.w.w.w.w.w.w.w.",
"w.w.w.w.w.w.w.w.w.w.w.w.w.w.w.w.w.w.w.w.w.w.w.w.w.w.w.w.w.w.w.w.w.w.w.w.w.w.w.w.w.w.w.w.w.w.w.w.w.w.w.w.w.w.w.w.w.w.w.w.w.w.w.w.",
"w.w.w.w.w.w.w.w.w.w.w.w.w.w.w.w.w.w.w.w.w.w.w.w.w.w.w.w.w.w.w.w.w.w.w.w.w.w.w.w.w.w.w.w.w.w.w.w.w.w.w.w.w.w.w.w.w.w.w.w.w.w.w.w.",
"w.w.w.w.w.w.w.w.w.w.w.w.w.w.w.w.w.w.w.w.w.w.w.w.w.w.w.w.w.w.w.w.w.w.w.w.w.w.w.w.w.w.w.w.w.w.w.w.w.w.w.w.w.w.w.w.w.w.w.w.w.w.w.w.",
"w.w.w.w.w.w.w.w.w.w.w.w.w.w.w.w.w.w.w.w.w.w.w.w.w.w.w.w.w.w.w.w.w.w.w.w.w.w.w.w.w.w.w.w.w.w.w.w.w.w.w.w.w.w.w.w.w.w.w.w.w.w.w.w.",
"w.w.w.w.w.w.w.w.w.w.w.w.w.w.w.w.w.w.w.w.w.w.w.w.w.w.w.w.w.w.w.w.w.w.w.w.w.w.w.w.w.w.w.w.w.w.w.w.w.w.w.w.w.w.w.w.w.w.w.w.w.w.w.w.",
"w.w.w.w.w.w.w.w.w.w.w.w.w.w.w.w.w.w.w.w.w.w.w.w.w.w.w.w.w.w.w.w.w.w.w.w.w.w.w.w.w.w.w.w.w.w.w.w.w.w.w.w.w.w.w.w.w.w.w.w.w.w.w.w.",
"w.w.w.w.w.w.w.w.w.w.w.w.w.w.w.w.w.w.w.w.w.w.w.w.w.w.w.w.w.w.w.w.w.w.w.w.w.w.w.w.w.w.w.w.w.w.w.w.w.w.w.w.w.w.w.w.w.w.w.w.w.w.w.w."
};
