/* XPM */
static char *walll[] = {
/* columns rows colors chars-per-pixel */
"64 64 248 2 ",
"   c #193D33",
".  c #1C4335",
"X  c #1B4E35",
"o  c #1C5130",
"O  c #2A592D",
"+  c #224436",
"@  c #254D35",
"#  c #284D36",
"$  c #285735",
"%  c #335C35",
"&  c #29522A",
"*  c #37672E",
"=  c #2D6A35",
"-  c #276433",
";  c #346C34",
":  c #396837",
">  c #3B7435",
",  c #3D7C39",
"<  c #397637",
"1  c #2C6C33",
"2  c #476D2D",
"3  c #4A722E",
"4  c #55772E",
"5  c #466B33",
"6  c #437534",
"7  c #4B7533",
"8  c #447A36",
"9  c #4C7B35",
"0  c #447C39",
"q  c #497A3B",
"w  c #527C34",
"e  c #577B36",
"r  c #617D32",
"t  c #405F32",
"y  c #2B5A4B",
"u  c #367845",
"i  c #2B6C4D",
"p  c #187669",
"a  c #106971",
"s  c #277767",
"d  c #165956",
"f  c #4B7C43",
"g  c #406D45",
"h  c #3E823F",
"j  c #4C843A",
"k  c #48853C",
"l  c #54853B",
"z  c #5A863A",
"x  c #538A3C",
"c  c #5B8B3C",
"v  c #598234",
"b  c #5C913D",
"n  c #648C3B",
"m  c #688938",
"M  c #728E38",
"N  c #62913C",
"B  c #6B943D",
"V  c #78973B",
"C  c #62802F",
"Z  c #7DA23F",
"A  c #2E8159",
"S  c #1F8070",
"D  c #378A69",
"F  c #268A7A",
"G  c #358E71",
"H  c #379876",
"J  c #2C8D72",
"K  c #3DA87D",
"L  c #4D8443",
"P  c #488547",
"I  c #528B43",
"U  c #5B8D43",
"Y  c #578848",
"T  c #5C9343",
"R  c #5C924C",
"E  c #579549",
"W  c #4A8853",
"Q  c #598B57",
"!  c #589655",
"~  c #648C46",
"^  c #639244",
"/  c #6B9443",
"(  c #649A43",
")  c #639B4D",
"_  c #6C9D4B",
"`  c #689748",
"'  c #769B46",
"]  c #659B54",
"[  c #63965C",
"{  c #679A57",
"}  c #739B55",
"|  c #618F52",
" . c #6CA34B",
".. c #67A348",
"X. c #7BA445",
"o. c #74A44C",
"O. c #78A748",
"+. c #6AA354",
"@. c #6BA657",
"#. c #76A857",
"$. c #7CB252",
"%. c #47956A",
"&. c #569868",
"*. c #469875",
"=. c #549470",
"-. c #669966",
";. c #6E9B6C",
":. c #46A17A",
">. c #56A874",
",. c #53A76D",
"<. c #6BA669",
"1. c #76A868",
"2. c #7BB465",
"3. c #6AA774",
"4. c #77A973",
"5. c #7AB575",
"6. c #6CBC76",
"7. c #75C47F",
"8. c #8A9E39",
"9. c #99B43E",
"0. c #8CAA3C",
"q. c #B3CA3B",
"w. c #819B42",
"e. c #85AD4A",
"r. c #87A847",
"t. c #91AE44",
"y. c #8AB34A",
"u. c #98B848",
"i. c #86AA57",
"p. c #89B656",
"a. c #96B758",
"s. c #A3BC49",
"d. c #A4BD59",
"f. c #B7B841",
"g. c #86AD69",
"h. c #88B568",
"j. c #96B966",
"k. c #83AD75",
"l. c #96BC78",
"z. c #87B57A",
"x. c #A2BD6D",
"c. c #95C255",
"v. c #93C459",
"b. c #A7C348",
"n. c #B6CB49",
"m. c #A7C857",
"M. c #B6CA56",
"N. c #B8D458",
"B. c #B4D54F",
"V. c #98C367",
"C. c #96CA73",
"Z. c #8CC971",
"A. c #A7C768",
"S. c #B6CF6A",
"D. c #B7D565",
"F. c #A5C777",
"G. c #AFD375",
"H. c #C8D948",
"J. c #D4DE4B",
"K. c #C6D957",
"L. c #D3DF58",
"P. c #C5CB4C",
"I. c #D9E157",
"U. c #D8E14C",
"Y. c #E6E748",
"T. c #E9E857",
"R. c #C6DA68",
"E. c #C7DA73",
"W. c #D0DF75",
"Q. c #DAE369",
"!. c #D9E373",
"~. c #CBE17A",
"^. c #E7E868",
"/. c #E7E874",
"(. c #F5EE6F",
"). c #EFE933",
"_. c #107486",
"`. c #148A93",
"'. c #299287",
"]. c #369987",
"[. c #279A98",
"{. c #359B93",
"}. c #2C8C87",
"|. c #36A495",
" X c #0D92AA",
".X c #179AAC",
"XX c #0899BC",
"oX c #169DB3",
"OX c #0B8BA7",
"+X c #259AA6",
"@X c #329BA3",
"#X c #1DA2AC",
"$X c #1CA4B3",
"%X c #16A3BC",
"&X c #26A4AB",
"*X c #36A8A9",
"=X c #38B2A8",
"-X c #25ABB3",
";X c #25A9B4",
":X c #39B6B6",
">X c #35ACB5",
",X c #49A687",
"<X c #56A687",
"1X c #49A997",
"2X c #56AE96",
"3X c #5AB58E",
"4X c #75B984",
"5X c #68B999",
"6X c #6CB98F",
"7X c #49B6A9",
"8X c #43BAB8",
"9X c #51B1A8",
"0X c #7CCA9A",
"qX c #68C292",
"wX c #4DC2B8",
"eX c #58C3BA",
"rX c #52C2AA",
"tX c #6CC6AE",
"yX c #5CC39A",
"uX c #0A9CC0",
"iX c #17A8C6",
"pX c #0BAEDC",
"aX c #08A9D6",
"sX c #1AB5DB",
"dX c #16B2D8",
"fX c #0FA9CE",
"gX c #25ACC8",
"hX c #28B4C8",
"jX c #38BAC8",
"kX c #34BCD2",
"lX c #23B6D2",
"zX c #04AEE5",
"xX c #00AFEA",
"cX c #08AEE0",
"vX c #04B0E8",
"bX c #08B0E5",
"nX c #12B1E2",
"mX c #49BDC4",
"MX c #4BC2C4",
"NX c #8AB587",
"BX c #95D389",
"VX c #96D497",
"CX c #8EC991",
"ZX c #A6D788",
"AX c #AFD48B",
"SX c #86D0A3",
"DX c #C8DB87",
"FX c #EDEC84",
/* pixels */
"xXxXxXxXxXxXxXxXxXxXxXxXxXxXxXxXxXxXxXxXxXxXxXxXxXxXxXxXxXxXxXxXxXxXxXxXxXxXxXxXxXxXxXxXxXxXxXxXxXxXxXxXxXxXxXxXxXxXxXxXxXxXxXxX",
"xXxXxXxXxXxXxXxXxXxXxXxXxXxXxXxXxXxXxXxXxXxXxXxXxXxXxXxXxXxXxXxXxXxXxXxXxXxXxXxXxXxXxXxXxXxXxXxXxXxXxXxXxXxXxXxXxXxXxXxXxXxXxXxX",
"xXxXxXxXxXxXxXxXxXxXxXxXxXxXxXxXxXxXxXxXxXxXxXxXxXxXxXxXxXxXxXxXxXxXxXxXxXxXxXxXxXxXxXxXxXxXxXxXxXxXxXxXxXxXxXxXxXxXxXxXxXxXxXxX",
"xXxXxXxXxXxXxXxXxXxXxXxXxXxXxXxXxXxXxXxXxXxXxXxXxXxXxXxXxXxXxXxXxXxXxXxXxXxXxXxXxXxXxXxXxXxXxXxXxXxXxXxXxXxXxXxXxXxXkXVXtXxXxXxX",
"xXxXxXxXxXxXxXxXxXxXxXxXxXxXxXxXxXxXxXxXxXxXxXxXxXxXxXxXxXxXxXxXxXxXxXxXxXxXxXxXxXxXxXxXxXxXxXxXxXxXxXxXxXxXxXxXvXkXFXL.BXvXvXvX",
"xXxXxXxXxXxXxXxXxXxXxXxXxXxXxXxXvXvXxXxXxXxXxXxXxXxXxXxXxXxXxXxXxXxXxXxXxXxXxXxXxXxXxXxXxXxXxXxXxXxXxXxXxXxXxXxXsX~.I.L.0XbXvXvX",
"xXxXxXxXxXxXxXxXxXxXxXxXxXxXxXxXvXvXvXvXsXeXvXvXxXxXxXxXxXxXxXxXxXxXxXxXxXxXxXxXxXxXxXxXxXxXxXxXxXxXxXxXxXxXxXxXrXY.H.H.xXxXvXvX",
"xXxXxXxXxXxXxXxXxXxXxXxXxXxXxXxXvXvXvXvXD.Y.vXvXxXxXxXxXxXxXxXxXxXxXxXxXxXxXxXxXxXxXxXxXxXxXxXxXxXxXxXxXxXxXxXxXB.J.H.C.xXxXvXvX",
"xXxXxXxXxXxXxXxXxXxXxXxXxXxXxXxXxXxXxXkX(.T.C.vXxXxXxXxXxXxXxXxXxXxXxXxXxXxXxXxXxXxXxXxXxXxXxXxXxXxXxXxXxXxXxXdXJ.H.N.wXxXxXxXxX",
"xXxXxXxXxXxXxXxXxXxXxXxXxXxXxXxXxXxXxXVX(.!.BXxXxXxXxXxXxXxXxXxXxXxXxXxXxXxXxXxXxXxXxXxXxXxXxXxXxXxXxXxXxXxXsXVX!.R.N.G.xXxXxXxX",
"xXxXxXxXxXxXxXxXxXxXxXxXxXxXxXxXxXxXxXZXY.H.G.sXxXxXxXxXxXxXxXxXxXxXxXxXxXxXvXvXxXxXxXxXxXxXxXxXxXxXvXxXxXxX0XQ.K.D.N.R.xXxXxXxX",
"xXxXxXxXxXxXxXxXxXxXxXxXxXxXxXxXxXxXxXZXT.H.L.C.xXxXxXxXxXxXxXxXxXxXxXxXxXxXxXvXxXxXxXxXxXxXxXxXxXxXvXvXvXdX^.R.N.D.N.yXxXxXxXxX",
"xXxXxXxXxXxXxXxXxXxXxXxXxXxXxXxXxXxXxXZX(.K.J.I.xXxXxXxXxXxXxXxXxXxXxXxXxXxXvXvXxXxXxXxXxXxXxXxXxXxXxXxXMXZXW.S.D.D.yXxXxXxXxXxX",
"xXxXxXxXxXxXxXxXxXxXxXxXxXxXxXxXxXxXbXAX/.D.R.K.xXxXxXxXxXxXxXxXxXxXxXxXxXxXvXvXxXxXxXxXxXxXxXxXxXxXkXkXmXMXE.A.m.Z.xXxXxXxXxXxX",
"xXxXxXxXxXxXxXxXxXxXxXxXxXxXxXxXxXxXMX(.!.E.K.:XxXxXxXxXxXxXxXxXxXxXxXxXxXxXxXVXxXxXxXxXxXxXxXxXxXxXDXtXMXSXC.c.c.=XxXxXxXxXxXxX",
"xXxXxXxXxXxXxXxXxXxXxXxXxXxXxXxXxXxXeX^.Q.E.N.jXxXxXxXxXxXxXxXxXxXxXxXxXxXxXkX0XxXxXxXxXxXxXxXxXxXxXE.R.S.c.c.y.y.=XxXxXxXxXxXxX",
"xXxXxXxXxXxXxXtXY.eXvXvXvXvXxXxXxXxXwX/.~.N.b.b.lXvXvXvXvXvXxXxXxXxXxXvXxXlX^.wXxXxXxXxXxXxXxXxXxXxX:Xd.a.e.e.r.t.9.vXvXvXxXxXxX",
"zXxXxXxXxXxXjX!.Y.wXvXvXvXvXxXxXxXxXDXFXW.c.b.u.5.sXvXvXxXxXxXxXxXxXxXvXxXSXL.8XxXxXxXxXxXxXxXxXxXxXaX4Xi.e.X.r.r.u.yXxXvXxXxXxX",
"xXxXxXxXxXxXMXT.^.wXvXvXvXxXxXxXxXjX^.^.B.y.u.y.V.j.-XdXxXxXxXxXxXxXvXvX0XE.^.Y.kXvXxXxXxXxXxXxXxXxXxX+X' $.2.g.5.i.V.dXxXxXxXxX",
"xXxXxXxXxXbXR.Y.J.G.vXvXvXvXxXxXxXC.T.I.M.u.y.C.F.j.g.2X>XvXxXxXxXxXvXtX^.R.!.FXVXxXxXxXxXxXxXvXxXxXxXxX;.h.k.g.#.X.n.7.xXxXxXxX",
"xXxXxXxXxXxX).Y.H.J.wXpXxXxXxXxXvXvX,Xh.u.y.p.l.C.C.p.#.w .XxXxXxXxXxXeXQ.M.I.T.kXvXxXxXvXvXvXvXxXxXvXiX4.k.#.@.] V 0.q.xXxXxXxX",
"xXxXxXxXxXvXY.^.N.H.K.MXxXxXxXxXvXvXvXdX,X#.1.V.l.a.e.n :  XxXxXxXxXvXvXH.B.K.J.lXzXxXxXvXMXtXVXVXVXuX<X1.4.4.<.-.^ 0.b.xXxXxXxX",
"vXxXxXxXvXjX(.^.N.K.C.lXxXxXxXxXvXxXvXxXvX].z.z.v.e.t.M e [.xXxXxXxXvXxXn.b.n.H.C.:XvX8XU./.Q.R.R.!.~ } 1.2.O.] Y / e.:XxXxXxXxX",
"xXxXxXxXvXG.^.^.R.N.Z.xXxXxXxXxXxXxXvXvXvX1Xz.NXj.r.t.r.{ -.xXzXxXxXxXxXn.m.b.P.n.n.6.B.~.R.E.Q.M.w.~ -.g.o.^ , ; v <.dXxXxXxXxX",
"xXxXxXxXvXBXQ.R.R.b.7.vXxXxXxXxXxXxXxXxXgXk.NXk.i.a.i.a.NX-.=.pXxXxXxX8Xj.x.y.M.n.m.r.q.S.D.U.H.e ~ [ { 2._ U , = n |.vXxXxXxXxX",
"xXxXxXxXjX~.FXE.B.c.7.xXxXxXxXxXxXxXxXxX8XNXk.' w.r.i.l.<.{ -.gXxXxXxXdXG.AXg.s.c.c.X.9.s.n.H.b.v e Y E 1.{ ] R L ' xXxXxXxXxXxX",
"vXxXxXvXT././.N.n.n.2.pXxXxXxXxXxXxXxXxX} i.M m m B o.+.| l q *.xXxXxXxXs.j.h.a.a.$.V 8.r.b.n.q.*.u < x @.<.-.&.Q N zXxXxXxXxXxX",
"xXxXxXxXT.^.I.n.m.B.c.6.xXxXxXxXxXxXxXxX].m e 4 7 8 T E j < > 7 xXxXxXxX8.r.#.x.@.M M B 0.b.n.qXxXXXO h #.[ [ f 7 W xXxXxXxXxXxX",
"vXxXxXxXkXZ.K.n.V.G.A.c.V.8XxXxXxXxXxXxXxXxXxXiX< q 0 T x 8 f : xXxXxXxX2Xn _ y._ n V n Z 9.6.pX>X&X XL I Q f : 3 .XxXxXxXxXxXxX",
"xXxXxXxXvXbXyXm.M.R.V.j.p.#.|.vXxXxXxXxXxXxXxXzX{.L L R ..^ -.f xXxXxXxX+Xn U O./ Y ^ c Z 0.@.3X<.aX XP Y -.# t f aXxXxXxXxXxXxX",
"xXxXxXxXxXxXxX0XK.K.N.m.X.w p vXxXxXxXxX5XxXxXcX&.q _ #.2.4X3.[ &XzXxXxX-Xz Y { { <.R v M V _ 1XvXpX}.j 6 Y d s xXxXxXxXxXxXxXxX",
"xXxXxXxXxXxXxXVXR.N.K.L.r.B S vXxXxXxXxXtXxXeX*X-.$.m.N.4X3.;.Q =.iXxXxX;XI -.! 5.h.y.9.' v j &.a s < k - q }.xXxXxXxXxXxXxXxXxX",
"xXxXxXxXxXvX%X;.N.m.K.I.y.i.2XpXxXxXsXCXtX9XM.x.NXj.v.c.c._ q q 7 .XxXiX*X-.3.Q h.V.S.m 4 q 7 % 0 < P I 1 = vXxXxXxXxXxXxXxXxXxX",
"xXxXxXxXxXvX=.k.A.m.m.B.V.g.] $XxXzXBXG.mX5Xd.a.g.p.y.e.e.e.o.q * .XgX-.4.3.R L v.S.U 3 9 q & ; Y P ! E f Q vXvXxXxXxXxXxXxXxXxX",
"xXxXxXxXxXxXi.i.Z c.v.A.K.u.o.{ xXxXAXj.sXxXj.G.a.' X.Z X.X.' q i %X+Xe | ! R e.E O O 8 B %.o > 0 W I I f # p xXxXxXxXxXxXxXxXxX",
"vXxXxXxXxXxX,X/ M a.2.v.N.M.r.; xXxX9Xi.2X7Xd.x.l.{.o.O.X.' } Y S bX.X6 I ] ! U =., 0 m %.aXa O - P , L :   d uXxXxXxXxXxXxXxXxX",
"xXxXxXxXxXxXxXxX*X#.p.$.c.V.c.> +XxX7Xi.x.x.A.R.2X<XO.o.o.#.1.3.F vX X1 ! =.[ ! > 1 #   uXxXxX_.$ , > f . + # % xXxXxXxXxXxXxXxX",
"xXxXbXeXbXxXbX7XmXhXr...$.v.0.j @XbX1.a.l.l.S.A.4X5._ _ B O.` R ].vXA h P ! @.g + @ % # y fXxX_.X - k y . + + _.xXxXxXxXxXxXxXxX",
"xXnXVXG.NXnXtXDX4X;XB (  .p.@.Q 1Xa.r.i.#.i.y.i.a.i.4.} c c j k *.iXf h I k ..% # @ > # d uXxXgX$ $ 1 - . . X XXxXxXxXxXxXxXxXxX",
"xXxXnXmXjXkXAXS.A.O. .N $. .] I %.m.f.' a.j.} r.d.i.g.1.j v j l I Q , < h , k $ # O s  XaXvXxX`.: = 1 X   . XXvXxXxXxXxXxXxXxXxX",
"xXxXxXxXxXxX6XNXF.j.o.O.[ +.x b +.gXP.8.U _ $.i.! @.B q ; v z j 0 0 $ - u o = o O * %XxXzXXXo * , < W $ . # xXxXxXxXxXxXxXxXxXxX",
"xXxXxXxXxXxXkXtXA.p.M _ +.4.k j l .Xh.8.n v o.O.#.@.o.x 8 8 c x ; - X X = o = . $ 4 xXxXzXa 2 8 , }.y .   + xXxXxXxXxXxXxXxXxXxX",
"xXxXxXxXxXxXmX/.K.i.+.4 T { x k 8 OX3Xr.' U t.V ! 3.+.U ' U ` l < = - - P +.g $ O 3 aXvXvXJ 8 k +Xd + . . . xXxXxXxXxXxXxXxXxXxX",
"xXxXxXxXxXxXsX0XP.' ;X%.P ] { P *  X$XM g./ _ _ P [.+.) <.-.Q x l W - u  .! Q : 6 * ].xXaXD < -     . # # _.vXvXxXxXxXxXxXxXxXxX",
"xXxXxXxXxXxXnXAXM.j.].+Xf Y  .1.L }.1XP.i.( ` T m C -X..{ [ k 0 0 -.1 < ....% 4 3 7 G xX&Xe - o     % 6 OXvXvXvXxXxXxXxXxXxXxXxX",
"xXxXxXxXxXxXsXF.A.i.Y +Xf [ T @.;.~ f a.' g.#._ v 4 hXi.] j j , q Y - <  .! # % 4 4 iXxX>XM < $ +   > { xXxXvXvXxXxXxXxXxXxXxXxX",
"xXxXxXxXxXxXvXqXr.i.m z f ; P ] } { W m 9.o. .<.~ z | { _ | 8 8 q 6 O < I 4.t 4 Y iXzXxX*Xm P i $ % 6 1XxXxXxXxXxXxXxXxXxXxXxXxX",
"xXxXxX7X9X=X2X$./ i.` C } > ; L @.#.,X=.8.p.@.g.~ ~ i.B #.] Q U > ; > L k l 2 w L iXxXxX,Xz -Xa # $ q oXxXxXxXxXxXxXxXxXxXxXxXxX",
"xXxXxXCXtX9X,X=.( T o.^ } 6 ; Q R #.>.-XU R E  .<.3.M m ] ] ^ z 9 l I I j % 4 e e oXxXvXm > aXd * A gXxXxXxXxXxXxXxXxXxXxXxXxXxX",
"xXxXxXhXxXxXxX*.l _ } ^ i.V O i u ;.#.T L Y 0 T #.3./ 8 ` T I w v U I Q l & 4 m m ;XxXvXk '.d @ l $XxXxXxXxXxXxXxXxXxXxXxXxXxXxX",
"xXxXxXxXxXxXxXxXi.' i.| N ( k > - $ = U l z 8 j B o.z < z ( ] ' b ..E ^ _ n e r gXxXvXvXk O $ ; ! iXxXxXxXxXxXxXxXxXxXxXxXxXxXxX",
"xXxXxXxXxXxXxXxXx.s.d.w.b N _ ^ f : % W +.U w x ^  .c 7 U I ' o.N  .<.1X&.-.n 8.xXxXvXvXx ; 2 0 B ;XxXxXxXxXxXxXxXxXxXxXxXxXxXxX",
"xXxXxXxXxXxXxXxXF.a.u.V P %.)  .l I 6 ] #.U 6 3 h.F.x l c B O.w.Z E 7XdXH ,XB &XxXxXxXxXe.=.9 L X.:XvXvXxXxXxXxXxXxXxXxXxXxXxXxX",
"zXxXxXxXxXxXxXxX5Xp.t.n uXjX| <.{ ;.U U ` #.c 6 1.h.) z / O.<.<.0.( sXnXH fX%.fXxXxXzX[.,.pX&.T c.=XvXvXxXxXxXxXxXxXxXxXxXxXxXxX",
"xXxXxXxXxXxXxXxXjXj.<.iXvXvXsX>.*.{.U ~ n _  .x } p.R 9 ' e.&.aX>.] vXvX=XxX].xXxXxX].Y :.vX%X! 7.vXvXvXxXxXxXxXxXxXxXxXxXxXxXxX",
"xXxXxXxXxXxXxXxXgXh.5XvXvXvXvXiX! u : R j I k.x e ' | w m #.m W $XW vXvXH vX[.xXxXxXW :.[.vXvX3X%XvXvXvXxXxXxXxXxXxXxXxXxXxXxXxX",
"xXxXxXxXxXxXxXxXxX2Xa.5XzXxXxXfX: 5 D mXi./ A 5.a 2X{ z l ) l m J D vXvXH aXlXvXxX].pX].-XvXxX,XbXxXxXxXxXxXxXxXxXxXxXxXxXxXxXxX",
"xXxXxXxXxXxXxXxXvX5XA.s.9XxXxX].q q s sXm B &.>.}.,X/ / / ( v ^ S J vXvX[.W vXvXxXD xXH &XvXxX1XiXxXxXxXxXxXxXxXxXxXxXxXxXxXxXxX",
"xXxXxXxXxXxXxXxXxX<X6Xh.e.*X{.*.F xXiXlX/ / *X[.#.H ].%.n U c , %.%XH vX$XT vXvXzXzXxX'.#XxXxXF iXxXxXxXxXxXxXxXxXxXxXxXxXxXxXxX",
"xXxXxXxXxXxXxXxXxXsXvXlXb.Z.;XbXp xXiX*.i.~ &.%.! .XiX<Xz c 1.- %.vXJ vXpXD vXvX%X%XxX*XJ xXxX1XiXxXxXxXxXxXxXxXxXxXxXxXxXxXxXxX",
"zXxXxXxXxXxXxXxXvXvXvXvX;Xe.sX1X+.o.&X>.O.,.<.:X! #XoX.XA Z 9 ; D vXJ zXvXK xXxXoXoXxXxXp xXxX@XiXxXxXxXxXxXxXxXxXxXxXxXxXxXxXxX",
"xXxXxXxXxXxXxXxXvXvXvXvX[.;X=XvXh.o.3.%Xt.#X,X1XI -XoX&XP w ( O #XaX'.%XvX*.$XxXpXcXxXxXs xXxXJ bXxXxXxXxXxXxXxXxXxXxXxXxXxXxXxX",
"xXxXxXxXxXxXxXxXxXxXvXvXF xX-XpXu 1.e.$X1X;X,X=XE =X X XN > b o oX&X$X#XvX{.:.xXaXxXxX@XF xXzXs xXxXxXxXxXxXxXxXxXxXxXxXxXxXxXxX",
"xXxXxXxXxXxXxXxXxXxXvXzXS vXhX:X[.z.0.$X$X;X:.xXQ { OXOXv * &.@ aXF $X#XvX;X>.xX}.xXxXp aXxXoX}.xXxXxXxXxXxXxXxXxXxXxXxXxXxXxXxX"
};
